<?xml version="1.0" encoding="UTF-8"?>
<svg version="1.1" xmlns="http://www.w3.org/2000/svg" width="576" height="508">
<path d="M0 0 C0.8781134 -0.00067474 1.75622681 -0.00134949 2.66094971 -0.00204468 C81.73523459 0.09383444 157.06912758 29.55238455 213.3125 85.375 C219.26080882 91.36852699 224.83574297 97.5100641 229.9375 104.25 C230.35273926 104.78882812 230.76797852 105.32765625 231.19580078 105.8828125 C238.88056073 115.87888377 245.62749704 126.33895322 251.9375 137.25 C252.33710937 137.93787598 252.73671875 138.62575195 253.1484375 139.33447266 C282.28902689 190.12270626 289.5360723 252.77530209 274.9375 309.25 C264.58604426 345.96486053 247.08453229 378.60317217 221.9375 407.25 C221.19886719 408.10078125 220.46023438 408.9515625 219.69921875 409.828125 C210.24857519 420.54000618 200.23261145 430.48904817 188.9375 439.25 C187.67166061 440.25624078 186.40605135 441.26277109 185.140625 442.26953125 C139.97403997 477.86796701 85.57888886 498.25403898 28.9375 506.25 C28.13650879 506.36859375 27.33551758 506.4871875 26.51025391 506.609375 C0.56736976 510.30528726 -28.15431818 510.07900037 -54.0625 506.25 C-54.98095703 506.12109375 -55.89941406 505.9921875 -56.84570312 505.859375 C-119.57145741 496.89262257 -176.32659811 470.14047209 -222.0625 426.25 C-222.95710938 425.39664062 -223.85171875 424.54328125 -224.7734375 423.6640625 C-230.69556321 417.88771219 -235.95275851 411.74930974 -241.0625 405.25 C-241.84238281 404.28707031 -242.62226563 403.32414062 -243.42578125 402.33203125 C-273.53518962 364.44315852 -292.83118692 315.86009913 -294.0625 267.25 C-294.08296387 266.50427734 -294.10342773 265.75855469 -294.12451172 264.99023438 C-295.64128288 201.46133967 -271.91929122 140.63537259 -228.234375 94.546875 C-227.17879923 93.4462684 -226.12144816 92.34736224 -225.0625 91.25 C-224.49595703 90.66154297 -223.92941406 90.07308594 -223.34570312 89.46679688 C-215.97640957 81.85321735 -208.45580719 74.74383173 -200.0625 68.25 C-199.05832031 67.45207031 -198.05414063 66.65414062 -197.01953125 65.83203125 C-150.05820947 28.74017894 -91.38977802 7.0900373 -32.0625 1.25 C-30.63828735 1.10860596 -30.63828735 1.10860596 -29.18530273 0.96435547 C-19.46295551 0.10598192 -9.75329576 0.00678638 0 0 Z M-58.0625 18.25 C-58.99819824 18.42692383 -59.93389648 18.60384766 -60.89794922 18.78613281 C-107.55681602 27.75392829 -150.7868761 47.88945706 -185.84765625 80.22265625 C-187.81421378 82.02273272 -189.82790802 83.7308807 -191.875 85.4375 C-207.89126678 99.49193491 -220.83463159 117.24931419 -232.0625 135.25 C-232.43826172 135.85038086 -232.81402344 136.45076172 -233.20117188 137.06933594 C-262.82919799 185.15711143 -271.48400366 246.23654976 -258.8125 300.9375 C-242.80983455 365.65586643 -201.35125924 418.34902493 -145.0625 453.25 C-139.17431701 456.79524107 -133.16384196 460.0876069 -127.0625 463.25 C-126.32483398 463.6325293 -125.58716797 464.01505859 -124.82714844 464.40917969 C-86.17779043 484.163296 -43.20020967 493.73703125 0.0625 493.5625 C1.00460327 493.56067719 1.94670654 493.55885437 2.9173584 493.55697632 C17.43791933 493.50977973 31.63563725 492.96043367 45.9375 490.25 C46.88882812 490.07307617 47.84015625 489.89615234 48.8203125 489.71386719 C84.65103623 482.87152252 119.19206436 469.6253932 148.9375 448.25 C150.48630859 447.14205078 150.48630859 447.14205078 152.06640625 446.01171875 C183.3710859 423.03318597 208.84386837 394.67650034 226.9375 360.25 C227.3072998 359.54987793 227.67709961 358.84975586 228.05810547 358.12841797 C239.13678741 336.83139424 245.9225036 313.85479592 249.9375 290.25 C250.13230957 289.1674292 250.13230957 289.1674292 250.33105469 288.06298828 C260.13285489 231.92914929 241.95866056 172.74441416 210.16845703 126.68310547 C204.86716054 119.16540021 199.03518294 112.13071873 192.9375 105.25 C192.46054687 104.70988281 191.98359375 104.16976562 191.4921875 103.61328125 C151.69098022 58.81031797 96.28957159 29.96439329 37.6875 19 C36.88634766 18.84885742 36.08519531 18.69771484 35.25976562 18.54199219 C19.13410662 15.70945177 3.03338359 14.87137588 -13.3125 14.9375 C-14.72432556 14.94023422 -14.72432556 14.94023422 -16.16467285 14.94302368 C-30.32716324 14.98910717 -44.13014358 15.50860009 -58.0625 18.25 Z " fill="#F6C6DE" transform="translate(294.0625,-0.25)"/>
<path d="M0 0 C0.09676989 12.20822063 0.15454198 24.41644521 0.1875 36.625 C0.19006805 37.56918793 0.19263611 38.51337585 0.19528198 39.48617554 C0.28525154 77.17462498 -0.48709854 114.82846845 -1.5 152.5 C-1.52688172 153.50134901 -1.52688172 153.50134901 -1.55430651 154.52292728 C-2.01537883 171.68255128 -2.49732038 188.84154561 -3 206 C-7.27305288 205.23740664 -10.44178365 203.89457685 -14.27734375 201.82421875 C-15.1753923 201.3428521 -15.1753923 201.3428521 -16.09158325 200.85176086 C-18.04369019 199.803307 -19.99060278 198.74559179 -21.9375 197.6875 C-23.30173136 196.95197184 -24.66623612 196.21695059 -26.03100586 195.48242188 C-29.41492153 193.65890784 -32.79450698 191.82754947 -36.17224121 189.99261475 C-38.73063659 188.60320768 -41.29135403 187.21809388 -43.8515625 185.83203125 C-57.10577812 178.63898558 -70.30257623 171.33965922 -83.49749756 164.03852844 C-87.61459413 161.76178474 -91.73927556 159.49928649 -95.8671875 157.2421875 C-109.91016133 149.53906227 -123.65981142 141.45824131 -137.30859375 133.0859375 C-143.45558056 129.31771711 -149.6544468 125.64509246 -155.875 122 C-179.42131113 108.15737773 -179.42131113 108.15737773 -181 105 C-180.33806641 104.64921387 -179.67613281 104.29842773 -178.99414062 103.93701172 C-162.76977211 95.31956065 -146.80593237 86.3673292 -131 77 C-129.72527148 76.24742686 -128.4503614 75.49516117 -127.17529297 74.74316406 C-113.30944805 66.56508468 -99.46441265 58.36304377 -85.80126953 49.84912109 C-67.97388659 38.7407243 -49.98405583 27.91469734 -31.8125 17.37890625 C-24.77376113 13.29648552 -17.77375994 9.14902646 -10.77587891 4.99707031 C-9.91397949 4.4862793 -9.05208008 3.97548828 -8.1640625 3.44921875 C-7.40561035 2.99893311 -6.6471582 2.54864746 -5.86572266 2.0847168 C-2.279991 0 -2.279991 0 0 0 Z M-12.8125 15.1328125 C-13.62759033 15.60195068 -14.44268066 16.07108887 -15.2824707 16.55444336 C-16.17925537 17.07272705 -17.07604004 17.59101074 -18 18.125 C-35.250947 28.03429602 -52.60414831 37.74285153 -70.12036133 47.17553711 C-77.92607324 51.39002066 -85.64967095 55.73820847 -93.3581543 60.12744141 C-100.16781599 63.99396883 -107.0371058 67.73577854 -113.9375 71.4375 C-126.13463781 77.9965064 -138.08052245 84.95192748 -150 92 C-152.1327246 93.25796153 -154.26553759 94.51577323 -156.3984375 95.7734375 C-161.60206008 98.8437303 -166.80239324 101.91953521 -172 105 C-168.85688421 108.50489247 -165.62355841 110.46517015 -161.453125 112.6171875 C-160.81399673 112.95058136 -160.17486847 113.28397522 -159.51637268 113.62747192 C-158.14463279 114.34292051 -156.77133463 115.05538794 -155.39663696 115.76513672 C-151.74235918 117.6544868 -148.1030545 119.57212074 -144.46484375 121.4921875 C-143.73557175 121.87695251 -143.00629974 122.26171753 -142.25492859 122.65814209 C-133.03314204 127.54420561 -124.0583754 132.83559649 -115.09033203 138.16943359 C-111.75517133 140.14502491 -108.40852599 142.10039999 -105.05859375 144.05078125 C-82.66895397 157.09490855 -60.55231159 170.56452785 -38.49169922 184.15649414 C-30.98122618 188.78345094 -23.46530196 193.40128093 -15.9375 198 C-14.94903076 198.60610107 -13.96056152 199.21220215 -12.94213867 199.83666992 C-12.04213135 200.38556885 -11.14212402 200.93446777 -10.21484375 201.5 C-9.02556274 202.22703125 -9.02556274 202.22703125 -7.81225586 202.96875 C-6.20266503 204.0824291 -6.20266503 204.0824291 -5 204 C-4.88072416 189.55649077 -5.01386762 175.13287573 -5.40234375 160.6953125 C-5.42295113 159.92712881 -5.4435585 159.15894512 -5.46479034 158.36748314 C-5.57415725 154.31434913 -5.68566486 150.26127656 -5.7979126 146.20822144 C-6.68333242 114.12045006 -7.27497896 82.03549174 -7.625 49.9375 C-7.63524578 49.00064613 -7.64549156 48.06379227 -7.65604782 47.09854889 C-7.7796809 35.73245034 -7.89464913 24.36628268 -8 13 C-9.80726737 13 -11.28250683 14.24824213 -12.8125 15.1328125 Z " fill="#F6C6DE" transform="translate(346,148)"/>
</svg>
