<?xml version="1.0" encoding="UTF-8"?>
<svg version="1.1" xmlns="http://www.w3.org/2000/svg" width="450" height="336">
<path d="M0 0 C-0.99 0.495 -0.99 0.495 -2 1 C-2 1.99 -2 2.98 -2 4 C-1.01 4 -0.02 4 1 4 C1 3.01 1 2.02 1 1 C2.97033203 0.90912109 2.97033203 0.90912109 4.98046875 0.81640625 C6.71615541 0.73196744 8.45183198 0.64732112 10.1875 0.5625 C11.48397461 0.50352539 11.48397461 0.50352539 12.80664062 0.44335938 C13.64775391 0.40146484 14.48886719 0.35957031 15.35546875 0.31640625 C16.12528076 0.27974854 16.89509277 0.24309082 17.68823242 0.20532227 C19.99538076 0.05411172 19.99538076 0.05411172 22.18455791 -0.50531673 C25.61865075 -1.10869915 28.8708289 -1.12271259 32.35884094 -1.12025452 C33.08998539 -1.12110894 33.82112983 -1.12196337 34.57443017 -1.12284368 C37.01880212 -1.12448782 39.4631051 -1.11899458 41.9074707 -1.11352539 C43.66188048 -1.11324326 45.41629037 -1.11340175 47.17070007 -1.1139679 C51.93059311 -1.11425487 56.69046096 -1.10837421 61.45034814 -1.10139394 C66.42581571 -1.09514384 71.40128386 -1.09455529 76.37675476 -1.09336853 C85.79724112 -1.09026011 95.21771588 -1.08205329 104.63819712 -1.07201904 C115.36362134 -1.06084274 126.08904611 -1.05534363 136.8144747 -1.05032361 C158.87632294 -1.03987029 180.93816074 -1.02228028 203 -1 C203 -0.34 203 0.32 203 1 C203.66 1 204.32 1 205 1 C205 1.99 205 2.98 205 4 C206.546875 3.87625 206.546875 3.87625 208.125 3.75 C212.66749457 4.04306417 214.63799778 4.96599799 218 8 C218.375 10.75 218.375 10.75 218 13 C218.66 13 219.32 13 220 13 C224.1479151 17.62652069 223.27510986 23.18193584 223 29 C223.99 29.33 224.98 29.66 226 30 C226 31.98 226 33.96 226 36 C225.01 36 224.02 36 223 36 C223 36.66 223 37.32 223 38 C223.99 38.33 224.98 38.66 226 39 C226 54.84 226 70.68 226 87 C225.01 87 224.02 87 223 87 C223 87.66 223 88.32 223 89 C223.99 89.33 224.98 89.66 226 90 C226 103 226 116 226 129 C226.00510054 130.8545741 226.01043094 132.70914756 226.01586914 134.5637207 C226.03195715 140.37018778 226.04347732 146.17665357 226.05181217 151.98313618 C226.05703061 155.49715236 226.06411384 159.01114426 226.07543945 162.52514648 C226.08840846 166.5753604 226.09324024 170.62554891 226.09765625 174.67578125 C226.10281754 175.93425369 226.10797882 177.19272614 226.11329651 178.48933411 C226.11337204 179.66372543 226.11344757 180.83811676 226.11352539 182.0480957 C226.115746 183.0790889 226.11796661 184.11008209 226.12025452 185.1723175 C226.00477677 187.88767838 225.61230669 190.35650239 225 193 C224.34 193 223.68 193 223 193 C223.02320313 194.20398438 223.04640625 195.40796875 223.0703125 196.6484375 C223.08906863 198.22395215 223.10726899 199.79947348 223.125 201.375 C223.14175781 202.1690625 223.15851563 202.963125 223.17578125 203.78125 C223.19335473 205.85492015 223.10335168 207.92883241 223 210 C222.34 210.66 221.68 211.32 221 212 C220.53993654 214.20250992 220.53993654 214.20250992 220.375 216.625 C220.30023438 217.44226563 220.22546875 218.25953125 220.1484375 219.1015625 C220.09945312 219.72804687 220.05046875 220.35453125 220 221 C219.34 221 218.68 221 218 221 C217.67 221.99 217.34 222.98 217 224 C210.4 224 203.8 224 197 224 C197 224.99 197 225.98 197 227 C136.28 227 75.56 227 13 227 C13 226.01 13 225.02 13 224 C12.16855469 224.01160156 11.33710937 224.02320313 10.48046875 224.03515625 C9.39378906 224.04417969 8.30710937 224.05320313 7.1875 224.0625 C6.10855469 224.07410156 5.02960938 224.08570313 3.91796875 224.09765625 C1 224 1 224 -2 223 C-2 222.34 -2 221.68 -2 221 C-2.763125 220.855625 -3.52625 220.71125 -4.3125 220.5625 C-7.82630536 218.51958991 -8.34749724 216.85895091 -9.3884449 213.02117538 C-11.62238165 201.98518742 -11.14682504 190.06205299 -11.12939453 178.85839844 C-11.13075497 177.42365475 -11.13253846 175.9889114 -11.13470459 174.5541687 C-11.13920756 170.70624251 -11.13751784 166.85834357 -11.1343255 163.01041698 C-11.13175865 158.93697738 -11.13415184 154.86353981 -11.13571167 150.7901001 C-11.13752339 143.94144278 -11.13515597 137.09279629 -11.13037109 130.24414062 C-11.1249566 122.40544117 -11.12667462 114.56676786 -11.1321975 106.72806907 C-11.13678881 99.93160908 -11.13734947 93.13515681 -11.13475883 86.33869576 C-11.13322528 82.30938813 -11.13291889 78.28009261 -11.13629532 74.25078583 C-11.14985586 55.59543941 -10.90836512 36.99655088 -10.08968925 18.35571671 C-10.0217595 16.57152017 -10 14.78548921 -10 13 C-9.34 13 -8.68 13 -8 13 C-8.33 12.2575 -8.66 11.515 -9 10.75 C-10 8 -10 8 -10 4 C-9.34 4 -8.68 4 -8 4 C-8 3.01 -8 2.02 -8 1 C-3.375 -1.125 -3.375 -1.125 0 0 Z M29 32.4375 C27.82031543 33.97157334 27.82031543 33.97157334 28 36 C27.01 36 26.02 36 25 36 C24.67 38.31 24.34 40.62 24 43 C23.34 43 22.68 43 22 43 C21.67 45.97 21.34 48.94 21 52 C20.01 52 19.02 52 18 52 C17.98969254 52.83493988 17.97938507 53.66987976 17.96876526 54.53012085 C17.87090025 62.38798973 17.76840161 70.24578142 17.66066074 78.10352135 C17.6054309 82.14353051 17.55201081 86.18354691 17.50268555 90.22363281 C17.45504287 94.12050405 17.40270011 98.01728609 17.34705925 101.91405106 C17.32663525 103.40281588 17.30792224 104.89160516 17.29092598 106.38041306 C17.26688289 108.46121843 17.23682841 110.54185475 17.20532227 112.62255859 C17.18200584 114.40126846 17.18200584 114.40126846 17.15821838 116.21591187 C17 119 17 119 16 121 C16.66 121 17.32 121 18 121 C18 141.46 18 161.92 18 183 C18.99 183 19.98 183 21 183 C21.33 183.99 21.66 184.98 22 186 C22.66 186 23.32 186 24 186 C24.33 186.99 24.66 187.98 25 189 C25.99 189 26.98 189 28 189 C28 189.99 28 190.98 28 192 C28.66 192 29.32 192 30 192 C30.33 192.99 30.66 193.98 31 195 C32.98 195 34.96 195 37 195 C37 195.66 37 196.32 37 197 C51.73670878 197.1556199 66.47348078 197.30356734 81.21035194 197.4429636 C88.05661583 197.50789164 94.90284135 197.57510947 101.74902344 197.64819336 C108.3820934 197.71899523 115.01520919 197.78278787 121.64838791 197.84269524 C124.15233946 197.86638032 126.65627164 197.89223794 129.16017532 197.92053413 C147.47197037 198.12536881 165.70625438 197.74500929 184 197 C184 196.34 184 195.68 184 195 C185.32 194.67 186.64 194.34 188 194 C188 192.35 188 190.7 188 189 C188.804375 188.87625 189.60875 188.7525 190.4375 188.625 C191.283125 188.41875 192.12875 188.2125 193 188 C196.31923412 181.36153176 195.13123987 171.76852825 195.09765625 164.52734375 C195.0962413 163.3636879 195.09482635 162.20003204 195.09336853 161.00111389 C195.08780628 157.31321557 195.07526083 153.62537973 195.0625 149.9375 C195.05748012 147.42513109 195.05291807 144.91276122 195.04882812 142.40039062 C195.03784923 136.26690605 195.02114903 130.13345749 195 124 C195.66 124 196.32 124 197 124 C197 123.01 197 122.02 197 121 C196.34 121 195.68 121 195 121 C195.10748158 111.92486901 195.22011097 102.84982086 195.33933926 93.77483654 C195.39453751 89.56109924 195.44795259 85.34735496 195.49731445 81.13354492 C195.54500366 77.06809236 195.59734816 73.00272411 195.65294075 68.93737221 C195.67334364 67.38523771 195.69206014 65.83308011 195.70907402 64.28090477 C195.73316378 62.10930395 195.76321199 59.93786213 195.79467773 57.76635742 C195.81022202 56.52947678 195.8257663 55.29259613 195.84178162 54.01823425 C196 51 196 51 197 48 C196.34 48 195.68 48 195 48 C195.02320313 47.19175781 195.04640625 46.38351563 195.0703125 45.55078125 C195.08835937 44.48214844 195.10640625 43.41351563 195.125 42.3125 C195.14820313 41.25675781 195.17140625 40.20101562 195.1953125 39.11328125 C194.99535169 35.92590599 194.52343305 33.79968657 193 31 C189.74566123 29.91522041 187.38514008 29.87418975 183.96052551 29.87301636 C182.69742554 29.87019653 181.43432556 29.86737671 180.13294983 29.86447144 C178.73031602 29.86641586 177.32768235 29.86846403 175.92504883 29.87060547 C174.44992021 29.86925061 172.97479194 29.86747019 171.49966431 29.86529541 C167.48909372 29.86072921 163.47854881 29.86250784 159.46797776 29.8656745 C155.26899028 29.86820465 151.07000502 29.8658585 146.87101746 29.86428833 C139.81366583 29.86246755 132.75632465 29.8648695 125.69897461 29.86962891 C117.55056854 29.87506082 109.40218754 29.8733163 101.25378209 29.8678025 C94.25407695 29.86325618 87.25437933 29.86262858 80.25467318 29.86524117 C76.07602096 29.86679694 71.89738048 29.86701713 67.71872902 29.86370468 C63.78467393 29.86080427 59.85065092 29.8628414 55.91659927 29.86859894 C54.47671881 29.86991538 53.03683562 29.86955148 51.59695625 29.86733627 C39.80873079 29.09033089 39.80873079 29.09033089 29 32.4375 Z " fill="#EFB9D6" transform="translate(94,21)"/>
<path d="M0 0 C6.6 0 13.2 0 20 0 C20 0.99 20 1.98 20 3 C24.95 3.495 24.95 3.495 30 4 C30 4.66 30 5.32 30 6 C32.64 6.33 35.28 6.66 38 7 C38 7.66 38 8.32 38 9 C38.99 9 39.98 9 41 9 C41.495 10.485 41.495 10.485 42 12 C42.99 12.33 43.98 12.66 45 13 C45 13.66 45 14.32 45 15 C46.65 15.33 48.3 15.66 50 16 C50.495 18.97 50.495 18.97 51 22 C51.66 22 52.32 22 53 22 C53.495 24.97 53.495 24.97 54 28 C54.99 28 55.98 28 57 28 C57 28.66 57 29.32 57 30 C57.66 30 58.32 30 59 30 C60.3271261 33.9813783 60.06915913 37.85045227 60 42 C60.66 42 61.32 42 62 42 C62 47.61 62 53.22 62 59 C61.34 59 60.68 59 60 59 C60.020625 60.093125 60.04125 61.18625 60.0625 62.3125 C60 66 60 66 59 69 C58.34 69 57.68 69 57 69 C57 70.65 57 72.3 57 74 C56.01 74 55.02 74 54 74 C53.505 75.98 53.505 75.98 53 78 C52.34 78 51.68 78 51 78 C50.67 79.98 50.34 81.96 50 84 C48.35 84.33 46.7 84.66 45 85 C44.67 86.65 44.34 88.3 44 90 C42.02 90.33 40.04 90.66 38 91 C38 91.66 38 92.32 38 93 C35.36 93.33 32.72 93.66 30 94 C30 94.99 30 95.98 30 97 C28.68 97 27.36 97 26 97 C26 97.66 26 98.32 26 99 C20.67602763 100.09970577 15.53336972 100.14910863 10.125 100.125 C9.26519531 100.12886719 8.40539062 100.13273437 7.51953125 100.13671875 C2.25653385 100.12873241 -2.79196324 99.76126755 -8 99 C-8 98.34 -8 97.68 -8 97 C-9.98 97 -11.96 97 -14 97 C-14 96.01 -14 95.02 -14 94 C-17.465 93.505 -17.465 93.505 -21 93 C-21 92.34 -21 91.68 -21 91 C-22.65 90.67 -24.3 90.34 -26 90 C-26 89.34 -26 88.68 -26 88 C-26.99 88 -27.98 88 -29 88 C-29.33 87.01 -29.66 86.02 -30 85 C-32.00121175 82.63493157 -32.96799661 82.0106678 -36 81 C-36 79.35 -36 77.7 -36 76 C-36.66 76 -37.32 76 -38 76 C-38.33 73.69 -38.66 71.38 -39 69 C-39.66 69 -40.32 69 -41 69 C-41.96070434 66.11788698 -42.10581883 64.30149956 -42.0625 61.3125 C-42.05347656 60.50425781 -42.04445312 59.69601563 -42.03515625 58.86328125 C-42.01775391 57.94095703 -42.01775391 57.94095703 -42 57 C-42.99 57 -43.98 57 -45 57 C-45 52.05 -45 47.1 -45 42 C-44.01 42 -43.02 42 -42 42 C-42.020625 40.7625 -42.04125 39.525 -42.0625 38.25 C-42.06766681 35.3359175 -41.93015558 32.79046673 -41 30 C-40.34 30 -39.68 30 -39 30 C-38.67 28.02 -38.34 26.04 -38 24 C-37.34 24 -36.68 24 -36 24 C-36 23.01 -36 22.02 -36 21 C-35.01 21 -34.02 21 -33 21 C-32.896875 20.236875 -32.79375 19.47375 -32.6875 18.6875 C-31.93875261 15.76057838 -31.48307071 14.68494084 -29 13 C-26.3125 12.8125 -26.3125 12.8125 -24 13 C-24 11.68 -24 10.36 -24 9 C-23.01 9 -22.02 9 -21 9 C-21 8.34 -21 7.68 -21 7 C-17.535 6.505 -17.535 6.505 -14 6 C-14 5.34 -14 4.68 -14 4 C-9.23692563 3.04738513 -4.8333472 2.91666643 0 3 C0 2.01 0 1.02 0 0 Z M-6 21 C-6.33 21.66 -6.66 22.32 -7 23 C-10.0625 23.625 -10.0625 23.625 -13 24 C-13 25.65 -13 27.3 -13 29 C-14.98 29.33 -16.96 29.66 -19 30 C-19 30.66 -19 31.32 -19 32 C-19.66 32 -20.32 32 -21 32 C-21.33 34.31 -21.66 36.62 -22 39 C-22.66 39 -23.32 39 -24 39 C-25.19713711 42.59141134 -25.13248902 45.52680108 -25.125 49.3125 C-25.12757813 50.60800781 -25.13015625 51.90351563 -25.1328125 53.23828125 C-25.01427685 56.59562923 -24.64302729 59.7083127 -24 63 C-23.34 63 -22.68 63 -22 63 C-21.67 64.98 -21.34 66.96 -21 69 C-20.34 69 -19.68 69 -19 69 C-19 69.99 -19 70.98 -19 72 C-18.01 72.33 -17.02 72.66 -16 73 C-15.67 73.66 -15.34 74.32 -15 75 C-12.42048126 75.69093896 -12.42048126 75.69093896 -9.4375 76.125 C-8.42558594 76.29257813 -7.41367188 76.46015625 -6.37109375 76.6328125 C-5.19740234 76.81457031 -5.19740234 76.81457031 -4 77 C-4 77.99 -4 78.98 -4 80 C-2.02 80 -0.04 80 2 80 C2 80.66 2 81.32 2 82 C6.62 82 11.24 82 16 82 C16 81.34 16 80.68 16 80 C18.64 80 21.28 80 24 80 C24.33 79.01 24.66 78.02 25 77 C26.7421875 76.375 26.7421875 76.375 28.875 76 C31.3274105 75.46038195 32.84292411 75.10640625 34.9375 73.6875 C36.30495617 71.51565784 36.65878916 69.5249602 37 67 C37.99 66.67 38.98 66.34 40 66 C40 65.01 40 64.02 40 63 C40.66 63 41.32 63 42 63 C42.80568119 58.76058229 43.13518559 54.75109604 43.125 50.4375 C43.12757813 49.34308594 43.13015625 48.24867188 43.1328125 47.12109375 C43.01250685 44.29391087 42.64499972 41.7489274 42 39 C41.34 39 40.68 39 40 39 C40 37.68 40 36.36 40 35 C39.01 35 38.02 35 37 35 C36.505 32.525 36.505 32.525 36 30 C34.02 29.67 32.04 29.34 30 29 C30 27.35 30 25.7 30 24 C27.03 23.67 24.06 23.34 21 23 C21 22.34 21 21.68 21 21 C18.30725081 20.10241694 16.74313992 19.87163778 13.98046875 19.8671875 C13.20509766 19.86589844 12.42972656 19.86460938 11.63085938 19.86328125 C10.42139648 19.86908203 10.42139648 19.86908203 9.1875 19.875 C8.39279297 19.87113281 7.59808594 19.86726563 6.77929688 19.86328125 C2.43446954 19.87046872 -1.75743153 19.94768317 -6 21 Z " fill="#EFB9D6" transform="translate(197,82)"/>
<path d="M0 0 C4.62 0 9.24 0 14 0 C14.33 1.65 14.66 3.3 15 5 C15.66 5 16.32 5 17 5 C17 5.99 17 6.98 17 8 C17.99 8 18.98 8 20 8 C20.77916092 13.02125926 21.13016601 16.97703996 20 22 C18.35 22.33 16.7 22.66 15 23 C15 23.66 15 24.32 15 25 C9.55211412 26.81596196 3.53613706 26.42868053 -2 25 C-2.33 23.35 -2.66 21.7 -3 20 C-3.66 20 -4.32 20 -5 20 C-5.08097324 17.72975032 -5.13917704 15.45867925 -5.1875 13.1875 C-5.22230469 11.92292969 -5.25710937 10.65835938 -5.29296875 9.35546875 C-5 6 -5 6 -3.61328125 4.05078125 C-2 3 -2 3 0 3 C0 2.01 0 1.02 0 0 Z " fill="#EFB9D6" transform="translate(251,65)"/>
</svg>
