<?xml version="1.0" encoding="UTF-8"?>
<svg version="1.1" xmlns="http://www.w3.org/2000/svg" width="6000" height="3210">
<path d="M0 0 C8.14722547 3.34571446 16.29608627 6.68742984 24.44606018 10.02644348 C26.27641767 10.776421 28.10669671 11.52659001 29.93690491 12.27693176 C68.84923611 28.22917668 107.88276171 43.87267619 146.94200134 59.46090698 C154.80958061 62.60095299 162.67589746 65.74407933 170.53889465 68.89558411 C186.7749784 75.40226408 203.01964504 81.8811325 219.33210754 88.19465637 C220.8252951 88.77320877 220.8252951 88.77320877 222.34864807 89.3634491 C260.63077783 104.18478419 299.06370452 118.63177748 337.77546692 132.29469299 C340.19508465 133.14999944 342.61335217 134.0090316 345.03132629 134.86897278 C446.5814762 170.95992352 550.1712915 201.54483311 789.26960754 240.06575012 C790.78896471 240.1923788 790.78896471 240.1923788 792.33901596 240.32156563 C814.08918373 242.12537188 835.85979865 243.55362861 857.64062405 244.92816257 C950.59330039 250.79452255 1041.3768333 259.70021851 1176.14460754 299.13215637 C1176.87854736 299.37236511 1177.61248718 299.61257385 1178.3686676 299.86006165 C1212.94464785 311.18376512 1246.90448447 324.33870419 1280.14460754 339.13215637 C1280.76946045 339.40976807 1281.39431335 339.68737976 1282.0381012 339.97340393 C1320.9473616 357.27139097 1359.55783456 375.66042332 1396.48835754 396.89778137 C1401.65038933 399.86576712 1406.8595433 402.74269544 1412.07698059 405.6118927 C1426.31119483 413.44823091 1440.27987149 421.66151262 1454.14460754 430.13215637 C1455.24788391 430.8045636 1456.35116028 431.47697083 1457.48786926 432.16975403 C1460.8759882 434.23646283 1464.26104749 436.30799365 1467.64460754 438.38215637 C1469.14616394 439.30145935 1469.14616394 439.30145935 1470.67805481 440.23933411 C1486.14617122 449.76408598 1501.28565828 459.81511142 1516.4568634 469.80281067 C1518.37826364 471.06704863 1520.30046872 472.33006418 1522.22346497 473.59187317 C1532.33369749 480.22604372 1542.39604253 486.88944535 1552.18684387 493.98884583 C1556.38393906 497.03022417 1560.64028912 499.98419779 1564.89460754 502.94465637 C1574.38582159 509.57246242 1583.79296683 516.30902736 1593.14460754 523.13215637 C1593.9006427 523.68339172 1594.65667786 524.23462708 1595.43562317 524.80256653 C1608.13550952 534.07605136 1620.66526258 543.56456993 1633.14460754 553.13215637 C1634.08360901 553.85096985 1634.08360901 553.85096985 1635.0415802 554.58430481 C1644.78585528 562.04428011 1654.46875269 569.5837714 1664.14460754 577.13215637 C1664.80202942 577.64488098 1665.45945129 578.15760559 1666.13679504 578.68586731 C1672.87567707 583.9462498 1679.56678161 589.25394564 1686.16804504 594.68684387 C1689.81522354 597.68308238 1693.47962131 600.65774916 1697.14460754 603.63215637 C1699.19245967 605.29569245 1701.24009718 606.95949232 1703.28767395 608.62336731 C1704.91027123 609.94175426 1706.53326531 611.25965282 1708.15632629 612.57746887 C1713.59360095 617.00666487 1718.96540333 621.50599283 1724.30940247 626.04670715 C1727.72557824 628.94506579 1731.16988172 631.80389117 1734.64460754 634.63215637 C1745.0455425 643.10643478 1755.20059309 651.87647628 1765.37849426 660.61604309 C1767.7170775 662.62359105 1770.05719371 664.62934654 1772.39753723 666.63484192 C1773.56117843 667.63213251 1774.72459038 668.62969066 1775.88777161 669.6275177 C1778.83755504 672.15761314 1781.79065912 674.68364582 1784.75007629 677.20246887 C1791.16325396 682.66751316 1797.48404152 688.20329074 1803.69538879 693.89778137 C1806.46690278 696.4261801 1809.28587757 698.89399638 1812.11726379 701.35481262 C1814.47949927 703.42575124 1816.81256607 705.52728485 1819.14460754 707.63215637 C1822.12523475 710.32199068 1825.11705987 712.99526001 1828.14460754 715.63215637 C1832.0425124 719.02710576 1835.87807811 722.48881522 1839.71492004 725.95246887 C1841.80066934 727.82360731 1843.90278383 729.67140468 1846.01960754 731.50715637 C1849.93455337 734.9169479 1853.75638151 738.425556 1857.57722473 741.93977356 C1863.18610731 747.09683929 1868.85454948 752.18671977 1874.53132629 757.26887512 C1879.84141575 762.03170898 1885.09798233 766.84828215 1890.3318634 771.69441223 C1893.53746153 774.65924958 1896.76371865 777.59740849 1900.01960754 780.50715637 C1904.95375402 784.92699442 1909.78466301 789.45327918 1914.61897278 793.98152161 C1918.07509413 797.21447054 1921.55034677 800.41906371 1925.08210754 803.56965637 C1930.17567402 808.12081311 1935.14323373 812.80206697 1940.11872864 817.48127747 C1945.07576367 822.13993465 1950.07526903 826.74719308 1955.09773254 831.33528137 C1961.15865206 836.88513521 1967.14277257 842.51861297 1973.14460754 848.13215637 C1975.68566167 850.50781262 1978.22731814 852.88282209 1980.76960754 855.25715637 C1981.70619202 856.13186584 1981.70619202 856.13186584 1982.66169739 857.02424622 C1986.62234325 860.72009047 1990.59710566 864.400103 1994.58210754 868.06965637 C2000.78826773 873.78575579 2006.9420333 879.55688424 2013.09382629 885.33137512 C2022.0809845 893.76693598 2031.09369904 902.17411398 2040.16096497 910.52351379 C2044.51177156 914.53541685 2048.83073503 918.5806001 2053.14460754 922.63215637 C2059.58771376 928.68272684 2066.06417531 934.69524349 2072.56794739 940.68049622 C2075.26271704 943.16162046 2077.95340529 945.64716416 2080.64460754 948.13215637 C2081.7266263 949.13086782 2082.80865755 950.12956575 2083.89070129 951.12825012 C2086.07091366 953.14070344 2088.25054455 955.15378395 2090.42976379 957.16731262 C2097.15959124 963.3844676 2103.90325651 969.5861683 2110.66072083 975.77326965 C2112.65543273 977.59995054 2114.64920661 979.42765342 2116.64289856 981.25544739 C2117.64200378 982.17138859 2118.64118966 983.08724182 2119.64045715 984.00300598 C2122.16656828 986.31809265 2124.69166053 988.63427426 2127.21492004 990.95246887 C2133.49131043 996.71666419 2139.80080746 1002.44214567 2146.14460754 1008.13215637 C2151.36805556 1012.82412478 2156.58104037 1017.52661444 2161.76960754 1022.25715637 C2165.51573013 1025.66702111 2169.29401266 1029.03194609 2173.11726379 1032.35481262 C2175.47949927 1034.42575124 2177.81256607 1036.52728485 2180.14460754 1038.63215637 C2185.4925074 1043.45336912 2190.8876297 1048.21109664 2196.36726379 1052.88215637 C2201.92583234 1057.6229496 2207.45398728 1062.37301854 2212.83210754 1067.31965637 C2217.218164 1071.34609473 2221.76202382 1075.11325359 2226.39460754 1078.85090637 C2229.22560333 1081.19934606 2231.93844352 1083.6412554 2234.64460754 1086.13215637 C2239.01497573 1090.15067288 2243.51935229 1093.93002713 2248.13679504 1097.65950012 C2251.65162869 1100.54896726 2255.08852293 1103.51918628 2258.51960754 1106.50715637 C2268.13386851 1114.86912436 2277.7769332 1123.12299063 2287.84407043 1130.93733215 C2292.04902509 1134.22058122 2296.11617103 1137.63533172 2300.14460754 1141.13215637 C2305.23518569 1145.54753327 2310.43031748 1149.78169618 2315.75178528 1153.91511536 C2320.29053388 1157.44427161 2324.756487 1161.05516992 2329.20710754 1164.69465637 C2334.96623692 1169.39520292 2340.78865293 1173.98621311 2346.69929504 1178.49543762 C2349.9488422 1180.97495442 2353.17264683 1183.48664074 2356.39485168 1186.00154114 C2373.44846973 1199.30947031 2390.66848646 1212.38376622 2408.14460754 1225.13215637 C2408.87179993 1225.66373352 2409.59899231 1226.19531067 2410.34822083 1226.74299622 C2440.78591715 1248.96832195 2472.00884925 1270.42555907 2504.14460754 1290.13215637 C2505.17392395 1290.76637512 2506.20324036 1291.40059387 2507.26374817 1292.05403137 C2523.03061337 1301.76306045 2538.93801753 1311.1708312 2555.14460754 1320.13215637 C2556.02181458 1320.61958313 2556.89902161 1321.10700989 2557.80281067 1321.60920715 C2564.22125576 1325.17118288 2570.67147873 1328.67061833 2577.14460754 1332.13215637 C2578.72411194 1332.97834534 2578.72411194 1332.97834534 2580.33552551 1333.84162903 C2651.36953142 1371.71326426 2727.98471697 1400.37971944 2981.14460754 1422.13215637 C2982.51014199 1422.00704109 2983.87570285 1421.88221376 2985.24128723 1421.75764465 C3024.04140253 1418.16191857 3062.31327919 1411.41120344 3100.14460754 1402.13215637 C3100.83216125 1401.96371216 3101.51971497 1401.79526794 3102.22810364 1401.62171936 C3180.30296258 1382.40047346 3257.26970052 1351.25790315 3326.64265442 1310.58821106 C3329.19760377 1309.10131431 3331.76906269 1307.64779503 3334.34773254 1306.20246887 C3354.81214545 1294.71103135 3374.5430486 1282.02804104 3394.14460754 1269.13215637 C3395.21324036 1268.42961731 3396.28187317 1267.72707825 3397.38288879 1267.00325012 C3418.66623476 1252.90266545 3439.50582417 1238.15604068 3460.14460754 1223.13215637 C3460.92094543 1222.56738586 3461.69728333 1222.00261536 3462.49714661 1221.42073059 C3473.53287994 1213.37885416 3484.38290993 1205.12891737 3495.12995911 1196.70588684 C3498.03792579 1194.43434622 3500.96531059 1192.18857439 3503.89460754 1189.94465637 C3514.88050758 1181.50242531 3525.71506162 1172.89094969 3536.45320129 1164.13606262 C3539.44103813 1161.70099458 3542.44307787 1159.28478224 3545.45710754 1156.88215637 C3553.51344771 1150.45051147 3561.45549443 1143.89226746 3569.31013489 1137.21662903 C3572.70356771 1134.33707897 3576.12701738 1131.50033165 3579.58210754 1128.69465637 C3584.39388757 1124.77679194 3589.11204837 1120.75974539 3593.81452942 1116.7122345 C3597.7191808 1113.35143009 3601.64268921 1110.01460844 3605.58210754 1106.69465637 C3612.18152267 1101.12539386 3618.7032431 1095.46834396 3625.21980286 1089.80256653 C3627.15762503 1088.12085936 3629.09966365 1086.44415357 3631.04304504 1084.76887512 C3636.72142026 1079.86996902 3642.37251514 1074.95714755 3647.89460754 1069.88215637 C3651.28436353 1066.77114684 3654.73603665 1063.81403241 3658.33210754 1060.94465637 C3663.91844007 1056.44187972 3669.11522875 1051.56848854 3674.31135559 1046.62361145 C3678.24118788 1042.88777163 3682.23885412 1039.25761066 3686.33430481 1035.70393372 C3688.58692282 1033.74812054 3690.80567539 1031.75658991 3693.01960754 1029.75715637 C3693.86265442 1028.9966095 3694.70570129 1028.23606262 3695.57429504 1027.45246887 C3696.42249817 1026.68676575 3697.27070129 1025.92106262 3698.14460754 1025.13215637 C3699.81101605 1023.63186958 3701.47768107 1022.13186765 3703.14460754 1020.63215637 C3703.96960754 1019.88965637 3704.79460754 1019.14715637 3705.64460754 1018.38215637 C3711.47794088 1013.13215637 3717.31127421 1007.88215637 3723.14460754 1002.63215637 C3723.97218567 1001.88707825 3724.79976379 1001.14200012 3725.65242004 1000.37434387 C3727.29200633 998.89923019 3728.93260409 997.42523986 3730.57429504 995.95246887 C3735.16491318 991.8311791 3739.72910722 987.68344924 3744.26960754 983.50715637 C3747.50677971 980.52997356 3750.75598483 977.57262781 3754.08210754 974.69465637 C3758.26570612 971.07003548 3762.30895364 967.2983057 3766.36701965 963.53474426 C3769.8553209 960.30539767 3773.39194934 957.147166 3776.98835754 954.03840637 C3779.91701167 951.44930635 3782.77857427 948.79019403 3785.64460754 946.13215637 C3789.72759628 942.34581731 3793.84230569 938.61448504 3798.05476379 934.97200012 C3800.78831353 932.56545447 3803.46573109 930.09910688 3806.14460754 927.63215637 C3810.07743158 924.01122916 3814.04674837 920.44256651 3818.08601379 916.94075012 C3820.63417404 914.70204387 3823.13871347 912.41805426 3825.64460754 910.13215637 C3829.43123752 906.67887484 3833.24937074 903.27116586 3837.11726379 899.90950012 C3839.47949927 897.8385615 3841.81256607 895.7370279 3844.14460754 893.63215637 C3849.4925074 888.81094362 3854.8876297 884.0532161 3860.36726379 879.38215637 C3865.92583234 874.64136314 3871.45398728 869.8912942 3876.83210754 864.94465637 C3881.24082321 860.89794668 3885.80526429 857.10461922 3890.46101379 853.34700012 C3893.09169311 851.17582811 3895.62403179 848.9297428 3898.14460754 846.63215637 C3901.46450241 843.60933216 3904.84224866 840.70703476 3908.33210754 837.88215637 C3912.80676368 834.25951516 3917.17831129 830.53714479 3921.51960754 826.75715637 C3931.13395135 818.39527442 3940.77692575 810.1413279 3950.84407043 802.32698059 C3955.04902243 799.04373361 3959.11620925 795.62902208 3963.14460754 792.13215637 C3968.21048945 787.73735946 3973.38289665 783.52978861 3978.68147278 779.41950989 C3983.43111052 775.72402951 3988.07572053 771.91191954 3992.70710754 768.06965637 C3998.70918321 763.09744725 4004.78680343 758.26255492 4010.98835754 753.54231262 C4014.29362397 751.01836536 4017.56647026 748.45696792 4020.83210754 745.88215637 C4033.53423002 735.87757586 4046.30564062 725.96049296 4059.14460754 716.13215637 C4059.90080383 715.55240051 4060.65700012 714.97264465 4061.43611145 714.37532043 C4073.13420891 705.41110409 4084.90813918 696.56320582 4096.79743958 687.85432434 C4099.17582665 686.10925024 4101.54959888 684.35808021 4103.92195129 682.60481262 C4113.87472112 675.25009426 4123.87535014 667.96598253 4133.91950989 660.73664856 C4136.13959378 659.13577174 4138.35559303 657.52940207 4140.57038879 655.92121887 C4150.0695158 649.02871247 4159.64332174 642.2520758 4169.26960754 635.53840637 C4173.02465751 632.91874159 4176.76675591 630.28160501 4180.50134277 627.63287354 C4186.91318869 623.08882255 4193.35483824 618.59276607 4199.84382629 614.15950012 C4200.65917847 613.60213165 4201.47453064 613.04476318 4202.31459045 612.47050476 C4211.98543821 605.8661382 4221.68587294 599.30565878 4231.39460754 592.75715637 C4232.33383057 592.12352173 4233.27305359 591.48988708 4234.24073792 590.83705139 C4247.37919263 581.97710317 4260.5468125 573.17439843 4273.87165833 564.59651184 C4276.08999971 563.16733766 4278.30361496 561.73114532 4280.51570129 560.29231262 C4291.12216205 553.39811313 4301.79185245 546.60362224 4312.47370911 539.82698059 C4314.93534469 538.26494456 4317.39551866 536.70063104 4319.85554504 535.13606262 C4332.63169242 527.02413584 4345.51299624 519.08439827 4358.42207336 511.18611145 C4359.56795503 510.48498876 4360.71370758 509.78365502 4361.85932922 509.08210754 C4379.03739936 498.56312407 4396.3313678 488.25911934 4413.73591614 478.11946106 C4416.93317706 476.25542268 4420.12738377 474.38628554 4423.32038879 472.51496887 C4454.27403433 454.3870532 4485.51203792 436.78863392 4517.09382629 419.77668762 C4520.2688254 418.06519642 4523.44123319 416.3489692 4526.61335754 414.63215637 C4538.74968328 408.07083716 4550.92499573 401.59401727 4563.17195129 395.24153137 C4567.36057171 393.06762433 4571.53737379 390.87210709 4575.71098328 388.66958618 C4586.25648074 383.1058923 4596.84418675 377.62849176 4607.45710754 372.19465637 C4608.3052301 371.76017181 4609.15335266 371.32568726 4610.0271759 370.8780365 C4628.57785426 361.37688911 4647.17512757 352.01348847 4666.00007629 343.06575012 C4670.30500151 341.01688197 4674.59722635 338.94366901 4678.88288879 336.85481262 C4693.14086699 329.91135093 4707.47827899 323.18580409 4721.93318176 316.66169739 C4723.32790577 316.03212517 4724.72259999 315.40248696 4726.11726379 314.77278137 C4727.14270294 314.30979897 4727.14270294 314.30979897 4728.18885803 313.83746338 C4733.58977081 311.39411437 4738.96214024 308.89255556 4744.32868958 306.37458801 C4785.55537358 287.04218112 4827.58004242 269.2399891 4869.64460754 251.81965637 C4870.83086731 251.32804016 4872.01712708 250.83642395 4873.23933411 250.32991028 C4881.011603 247.13215637 4881.011603 247.13215637 4882.14460754 247.13215637 C4882.14460754 1174.43215637 4882.14460754 2101.73215637 4882.14460754 3057.13215637 C2902.14460754 3057.13215637 922.14460754 3057.13215637 -1117.85539246 3057.13215637 C-1117.85539246 243.54705561 -1117.85539246 243.54705561 -1095.23039246 206.75715637 C-1094.50114559 205.56584902 -1093.77206453 204.37444015 -1093.0431366 203.18293762 C-1090.98791658 199.82812457 -1088.92216179 196.47986729 -1086.85539246 193.13215637 C-1086.34895203 192.30683411 -1085.8425116 191.48151184 -1085.32072449 190.63117981 C-1078.11548243 178.90626254 -1070.4765608 167.46385483 -1062.85539246 156.00715637 C-1062.35232574 155.24983215 -1061.84925903 154.49250793 -1061.33094788 153.7122345 C-1051.8686883 139.4807554 -1042.14041444 125.43869114 -1031.98039246 111.69465637 C-1031.1152301 110.52326111 -1031.1152301 110.52326111 -1030.23258972 109.32820129 C-1016.61638789 90.97352434 -1002.31510755 73.16059283 -987.36125183 55.88069153 C-985.79276838 54.05944015 -984.23682105 52.22808521 -982.68351746 50.39387512 C-973.5119982 39.57952659 -973.5119982 39.57952659 -968.54290771 34.82061768 C-966.80236468 33.07909886 -965.20585061 31.26459905 -963.60514832 29.39411926 C-960.10974077 25.37489135 -956.4433137 21.57488889 -952.67179871 17.81575012 C-952.01259933 17.15559402 -951.35339996 16.49543793 -950.67422485 15.8152771 C-949.29142411 14.43180131 -947.9073817 13.04956554 -946.5221405 11.66853333 C-944.42308903 9.57483968 -942.32943306 7.47585763 -940.23625183 5.376297 C-938.8817546 4.02246066 -937.52694714 2.66893462 -936.17179871 1.31575012 C-935.55696121 0.6988884 -934.94212372 0.08202667 -934.30865479 -0.55352783 C-930.53829073 -4.3039992 -926.64955035 -7.86694813 -922.62168884 -11.33966064 C-920.21420169 -13.42259583 -917.88115378 -15.58277018 -915.54289246 -17.74284363 C-910.14047789 -22.66356143 -904.55370387 -27.29576916 -898.85539246 -31.86784363 C-897.73518729 -32.78009652 -896.61541541 -33.69288166 -895.49601746 -34.60612488 C-823.8000539 -92.85970717 -739.20220132 -132.41021267 0 0 Z " fill="#0B080E" transform="translate(1117.8553924560547,152.8678436279297)"/>
</svg>
