<?xml version="1.0" encoding="UTF-8"?>
<svg version="1.1" xmlns="http://www.w3.org/2000/svg" width="450" height="336">
<path d="M0 0 C8.41531767 0.4005262 16.74797104 0.64722468 25.171875 0.40234375 C28.20802297 0.57056276 30.32802003 1.27121779 33.0625 2.5625 C33.0625 3.5525 33.0625 4.5425 33.0625 5.5625 C34.0525 5.5625 35.0425 5.5625 36.0625 5.5625 C36.0625 6.5525 36.0625 7.5425 36.0625 8.5625 C37.0525 8.8925 38.0425 9.2225 39.0625 9.5625 C39.0625 10.2225 39.0625 10.8825 39.0625 11.5625 C39.7225 11.5625 40.3825 11.5625 41.0625 11.5625 C41.5575 14.5325 41.5575 14.5325 42.0625 17.5625 C43.0525 17.5625 44.0425 17.5625 45.0625 17.5625 C45.0625 18.5525 45.0625 19.5425 45.0625 20.5625 C46.5475 21.0575 46.5475 21.0575 48.0625 21.5625 C48.0625 23.2125 48.0625 24.8625 48.0625 26.5625 C48.825625 26.665625 49.58875 26.76875 50.375 26.875 C53.32001284 27.62837538 54.31459356 28.11543098 56.0625 30.5625 C56.41863097 32.22444453 56.75458308 33.890951 57.0625 35.5625 C57.7225 35.8925 58.3825 36.2225 59.0625 36.5625 C59.0625 37.2225 59.0625 37.8825 59.0625 38.5625 C60.0525 38.5625 61.0425 38.5625 62.0625 38.5625 C62.0625 39.8825 62.0625 41.2025 62.0625 42.5625 C63.0525 42.5625 64.0425 42.5625 65.0625 42.5625 C65.5575 45.0375 65.5575 45.0375 66.0625 47.5625 C67.0525 47.5625 68.0425 47.5625 69.0625 47.5625 C69.0625 48.5525 69.0625 49.5425 69.0625 50.5625 C69.7225 50.5625 70.3825 50.5625 71.0625 50.5625 C71.3925 51.5525 71.7225 52.5425 72.0625 53.5625 C72.578125 54.0575 73.09375 54.5525 73.625 55.0625 C75.0625 56.5625 75.0625 56.5625 75.0625 59.5625 C76.0525 59.5625 77.0425 59.5625 78.0625 59.5625 C78.0625 60.5525 78.0625 61.5425 78.0625 62.5625 C78.7225 62.5625 79.3825 62.5625 80.0625 62.5625 C80.0625 63.5525 80.0625 64.5425 80.0625 65.5625 C81.0525 64.9025 82.0425 64.2425 83.0625 63.5625 C85.10546875 63.3671875 85.10546875 63.3671875 87.25 63.4375 C88.508125 63.47875 89.76625 63.52 91.0625 63.5625 C91.3925 62.5725 91.7225 61.5825 92.0625 60.5625 C94.125 59.875 94.125 59.875 96.0625 59.5625 C96.3925 57.9125 96.7225 56.2625 97.0625 54.5625 C99.5375 54.0675 99.5375 54.0675 102.0625 53.5625 C102.3925 52.5725 102.7225 51.5825 103.0625 50.5625 C103.7225 50.5625 104.3825 50.5625 105.0625 50.5625 C105.3925 48.5825 105.7225 46.6025 106.0625 44.5625 C106.7225 44.5625 107.3825 44.5625 108.0625 44.5625 C108.0625 43.9025 108.0625 43.2425 108.0625 42.5625 C109.0525 42.5625 110.0425 42.5625 111.0625 42.5625 C111.3925 41.2425 111.7225 39.9225 112.0625 38.5625 C112.7225 38.5625 113.3825 38.5625 114.0625 38.5625 C114.0625 37.9025 114.0625 37.2425 114.0625 36.5625 C115.3825 36.5625 116.7025 36.5625 118.0625 36.5625 C118.0625 35.5725 118.0625 34.5825 118.0625 33.5625 C118.7225 33.5625 119.3825 33.5625 120.0625 33.5625 C120.0625 32.5725 120.0625 31.5825 120.0625 30.5625 C121.0525 30.2325 122.0425 29.9025 123.0625 29.5625 C123.3925 28.5725 123.7225 27.5825 124.0625 26.5625 C125.7125 26.5625 127.3625 26.5625 129.0625 26.5625 C129.3925 24.5825 129.7225 22.6025 130.0625 20.5625 C130.7225 20.5625 131.3825 20.5625 132.0625 20.5625 C132.0625 19.9025 132.0625 19.2425 132.0625 18.5625 C133.3825 18.5625 134.7025 18.5625 136.0625 18.5625 C136.35125 17.634375 136.64 16.70625 136.9375 15.75 C138.0625 12.5625 138.0625 12.5625 140.0625 9.5625 C140.743125 9.3975 141.42375 9.2325 142.125 9.0625 C142.764375 8.8975 143.40375 8.7325 144.0625 8.5625 C144.3925 7.5725 144.7225 6.5825 145.0625 5.5625 C156.6125 5.5625 168.1625 5.5625 180.0625 5.5625 C180.0625 7.8725 180.0625 10.1825 180.0625 12.5625 C181.3825 12.5625 182.7025 12.5625 184.0625 12.5625 C184.0625 14.2125 184.0625 15.8625 184.0625 17.5625 C183.0725 17.5625 182.0825 17.5625 181.0625 17.5625 C181.0625 18.2225 181.0625 18.8825 181.0625 19.5625 C180.0725 19.5625 179.0825 19.5625 178.0625 19.5625 C178.041875 20.490625 178.02125 21.41875 178 22.375 C177.690625 23.426875 177.38125 24.47875 177.0625 25.5625 C173.6875 27.25 173.6875 27.25 170.0625 28.5625 C169.505625 29.119375 168.94875 29.67625 168.375 30.25 C167.941875 30.683125 167.50875 31.11625 167.0625 31.5625 C165.7425 31.5625 164.4225 31.5625 163.0625 31.5625 C162.7325 33.5425 162.4025 35.5225 162.0625 37.5625 C159.5875 38.0575 159.5875 38.0575 157.0625 38.5625 C156.98 39.305 156.8975 40.0475 156.8125 40.8125 C155.90886905 44.12581349 154.73067101 45.44365832 152.0625 47.5625 C151.0725 47.5625 150.0825 47.5625 149.0625 47.5625 C149.0625 48.5525 149.0625 49.5425 149.0625 50.5625 C148.4025 50.5625 147.7425 50.5625 147.0625 50.5625 C146.7325 52.2125 146.4025 53.8625 146.0625 55.5625 C143.5875 56.0575 143.5875 56.0575 141.0625 56.5625 C140.7325 58.2125 140.4025 59.8625 140.0625 61.5625 C137.5875 62.0575 137.5875 62.0575 135.0625 62.5625 C135.0625 63.5525 135.0625 64.5425 135.0625 65.5625 C134.0725 65.5625 133.0825 65.5625 132.0625 65.5625 C132.0625 66.5525 132.0625 67.5425 132.0625 68.5625 C131.0725 68.5625 130.0825 68.5625 129.0625 68.5625 C128.7325 70.2125 128.4025 71.8625 128.0625 73.5625 C126.4125 73.5625 124.7625 73.5625 123.0625 73.5625 C122.7325 75.8725 122.4025 78.1825 122.0625 80.5625 C121.0725 80.5625 120.0825 80.5625 119.0625 80.5625 C119.0625 81.2225 119.0625 81.8825 119.0625 82.5625 C118.0725 82.5625 117.0825 82.5625 116.0625 82.5625 C116.0625 83.5525 116.0625 84.5425 116.0625 85.5625 C115.4025 85.5625 114.7425 85.5625 114.0625 85.5625 C114.0625 86.5525 114.0625 87.5425 114.0625 88.5625 C111.0925 89.0575 111.0925 89.0575 108.0625 89.5625 C108.0625 91.2125 108.0625 92.8625 108.0625 94.5625 C107.0725 94.8925 106.0825 95.2225 105.0625 95.5625 C105.0625 96.5525 105.0625 97.5425 105.0625 98.5625 C106.0525 98.8925 107.0425 99.2225 108.0625 99.5625 C108.0625 100.5525 108.0625 101.5425 108.0625 102.5625 C109.0525 102.5625 110.0425 102.5625 111.0625 102.5625 C111.0625 103.5525 111.0625 104.5425 111.0625 105.5625 C111.7225 105.5625 112.3825 105.5625 113.0625 105.5625 C113.3925 107.2125 113.7225 108.8625 114.0625 110.5625 C115.7125 110.8925 117.3625 111.2225 119.0625 111.5625 C119.3925 114.2025 119.7225 116.8425 120.0625 119.5625 C121.0525 119.8925 122.0425 120.2225 123.0625 120.5625 C123.0625 121.2225 123.0625 121.8825 123.0625 122.5625 C124.7125 122.8925 126.3625 123.2225 128.0625 123.5625 C128.165625 124.325625 128.26875 125.08875 128.375 125.875 C129.11844134 128.78117978 129.72136963 129.76163049 132.0625 131.5625 C133.0525 131.8925 134.0425 132.2225 135.0625 132.5625 C135.0625 133.8825 135.0625 135.2025 135.0625 136.5625 C135.7225 136.5625 136.3825 136.5625 137.0625 136.5625 C139.3908935 138.33207906 140.01538806 139.37833516 140.75 142.25 C140.853125 143.013125 140.95625 143.77625 141.0625 144.5625 C142.0525 144.8925 143.0425 145.2225 144.0625 145.5625 C144.0625 146.2225 144.0625 146.8825 144.0625 147.5625 C144.7225 147.5625 145.3825 147.5625 146.0625 147.5625 C146.3925 149.5425 146.7225 151.5225 147.0625 153.5625 C147.84625 153.624375 148.63 153.68625 149.4375 153.75 C152.0625 154.5625 152.0625 154.5625 153.375 156.9375 C154.0625 159.5625 154.0625 159.5625 154.0625 162.5625 C154.7225 162.5625 155.3825 162.5625 156.0625 162.5625 C156.3925 163.5525 156.7225 164.5425 157.0625 165.5625 C158.0525 165.8925 159.0425 166.2225 160.0625 166.5625 C160.0625 167.5525 160.0625 168.5425 160.0625 169.5625 C160.7225 169.5625 161.3825 169.5625 162.0625 169.5625 C162.3925 171.2125 162.7225 172.8625 163.0625 174.5625 C164.7125 174.8925 166.3625 175.2225 168.0625 175.5625 C168.165625 176.325625 168.26875 177.08875 168.375 177.875 C168.82684916 180.59237123 168.82684916 180.59237123 170.625 182.125 C171.099375 182.599375 171.57375 183.07375 172.0625 183.5625 C172.0625 184.8825 172.0625 186.2025 172.0625 187.5625 C173.0525 187.5625 174.0425 187.5625 175.0625 187.5625 C175.0625 191.1925 175.0625 194.8225 175.0625 198.5625 C174.0725 198.5625 173.0825 198.5625 172.0625 198.5625 C171.7325 199.5525 171.4025 200.5425 171.0625 201.5625 C168.0925 201.5625 165.1225 201.5625 162.0625 201.5625 C162.0625 202.5525 162.0625 203.5425 162.0625 204.5625 C154.1425 204.5625 146.2225 204.5625 138.0625 204.5625 C138.0625 203.5725 138.0625 202.5825 138.0625 201.5625 C136.70318359 201.57990234 136.70318359 201.57990234 135.31640625 201.59765625 C128.46746536 201.64838915 121.848592 201.49851269 115.0625 200.5625 C115.0625 199.9025 115.0625 199.2425 115.0625 198.5625 C113.7425 198.2325 112.4225 197.9025 111.0625 197.5625 C111.0625 196.5725 111.0625 195.5825 111.0625 194.5625 C110.0725 194.5625 109.0825 194.5625 108.0625 194.5625 C108.0625 193.9025 108.0625 193.2425 108.0625 192.5625 C107.0725 192.2325 106.0825 191.9025 105.0625 191.5625 C105.0625 190.9025 105.0625 190.2425 105.0625 189.5625 C104.0725 189.2325 103.0825 188.9025 102.0625 188.5625 C102.0625 186.9125 102.0625 185.2625 102.0625 183.5625 C100.4125 183.2325 98.7625 182.9025 97.0625 182.5625 C96.7325 180.5825 96.4025 178.6025 96.0625 176.5625 C95.4025 176.5625 94.7425 176.5625 94.0625 176.5625 C94.0625 175.9025 94.0625 175.2425 94.0625 174.5625 C93.0725 174.5625 92.0825 174.5625 91.0625 174.5625 C90.7325 173.5725 90.4025 172.5825 90.0625 171.5625 C89.4025 171.2325 88.7425 170.9025 88.0625 170.5625 C87.4375 167.5 87.4375 167.5 87.0625 164.5625 C86.4025 164.5625 85.7425 164.5625 85.0625 164.5625 C85.0625 163.9025 85.0625 163.2425 85.0625 162.5625 C84.0725 162.5625 83.0825 162.5625 82.0625 162.5625 C81.7325 160.5825 81.4025 158.6025 81.0625 156.5625 C80.0725 156.2325 79.0825 155.9025 78.0625 155.5625 C78.0625 154.9025 78.0625 154.2425 78.0625 153.5625 C77.0725 153.5625 76.0825 153.5625 75.0625 153.5625 C75.0625 152.2425 75.0625 150.9225 75.0625 149.5625 C74.4025 149.5625 73.7425 149.5625 73.0625 149.5625 C72.423125 148.7375 71.78375 147.9125 71.125 147.0625 C70.444375 146.2375 69.76375 145.4125 69.0625 144.5625 C68.0725 144.5625 67.0825 144.5625 66.0625 144.5625 C65.959375 145.119375 65.85625 145.67625 65.75 146.25 C64.91351237 149.06364022 63.78032737 151.18396979 62.0625 153.5625 C61.0725 153.5625 60.0825 153.5625 59.0625 153.5625 C59.0625 154.2225 59.0625 154.8825 59.0625 155.5625 C58.258125 156.201875 57.45375 156.84125 56.625 157.5 C53.82529268 159.37285932 53.82529268 159.37285932 53.0625 162.5625 C52.0725 162.5625 51.0825 162.5625 50.0625 162.5625 C50.0625 163.2225 50.0625 163.8825 50.0625 164.5625 C48.6875 166.1875 48.6875 166.1875 47.0625 167.5625 C46.4025 167.5625 45.7425 167.5625 45.0625 167.5625 C45.0625 168.5525 45.0625 169.5425 45.0625 170.5625 C44.0725 170.8925 43.0825 171.2225 42.0625 171.5625 C41.7325 172.2225 41.4025 172.8825 41.0625 173.5625 C40.4025 173.5625 39.7425 173.5625 39.0625 173.5625 C38.876875 174.738125 38.876875 174.738125 38.6875 175.9375 C38.0625 178.5625 38.0625 178.5625 36.0625 180.5625 C34.7425 180.5625 33.4225 180.5625 32.0625 180.5625 C32.0625 181.5525 32.0625 182.5425 32.0625 183.5625 C31.4025 183.5625 30.7425 183.5625 30.0625 183.5625 C29.4025 185.2125 28.7425 186.8625 28.0625 188.5625 C26.7425 188.5625 25.4225 188.5625 24.0625 188.5625 C23.7325 189.8825 23.4025 191.2025 23.0625 192.5625 C22.4025 192.5625 21.7425 192.5625 21.0625 192.5625 C21.0625 193.2225 21.0625 193.8825 21.0625 194.5625 C19.7425 194.5625 18.4225 194.5625 17.0625 194.5625 C15.85621992 196.89464148 14.8970262 199.05892139 14.0625 201.5625 C12.0825 201.5625 10.1025 201.5625 8.0625 201.5625 C8.0625 202.5525 8.0625 203.5425 8.0625 204.5625 C7.42441406 204.62308594 6.78632813 204.68367187 6.12890625 204.74609375 C5.30261719 204.82988281 4.47632813 204.91367187 3.625 205 C2.80128906 205.08121094 1.97757813 205.16242188 1.12890625 205.24609375 C-0.92412025 205.35180815 -0.92412025 205.35180815 -1.9375 206.5625 C-6.20215802 206.81673019 -10.47866727 206.74773163 -14.75 206.75 C-15.95205078 206.76224609 -17.15410156 206.77449219 -18.39257812 206.78710938 C-19.54822266 206.78904297 -20.70386719 206.79097656 -21.89453125 206.79296875 C-22.95647705 206.79707764 -24.01842285 206.80118652 -25.11254883 206.80541992 C-27.91545344 206.5643958 -29.55614567 206.00923099 -31.9375 204.5625 C-31.9375 202.9125 -31.9375 201.2625 -31.9375 199.5625 C-30.9475 199.5625 -29.9575 199.5625 -28.9375 199.5625 C-28.9375 198.9025 -28.9375 198.2425 -28.9375 197.5625 C-30.2575 197.8925 -31.5775 198.2225 -32.9375 198.5625 C-32.9375 200.5425 -32.9375 202.5225 -32.9375 204.5625 C-34.5875 204.5625 -36.2375 204.5625 -37.9375 204.5625 C-38.30375971 200.04529689 -38.30375971 200.04529689 -36.5625 197.75 C-34.9375 196.5625 -34.9375 196.5625 -32.9375 196.5625 C-32.4425 194.5825 -32.4425 194.5825 -31.9375 192.5625 C-30.6175 192.5625 -29.2975 192.5625 -27.9375 192.5625 C-27.6075 193.2225 -27.2775 193.8825 -26.9375 194.5625 C-26.6075 192.9125 -26.2775 191.2625 -25.9375 189.5625 C-25.2775 189.5625 -24.6175 189.5625 -23.9375 189.5625 C-23.9375 187.9125 -23.9375 186.2625 -23.9375 184.5625 C-22.9475 184.2325 -21.9575 183.9025 -20.9375 183.5625 C-20.6075 182.9025 -20.2775 182.2425 -19.9375 181.5625 C-19.2775 181.5625 -18.6175 181.5625 -17.9375 181.5625 C-17.81375 180.77875 -17.69 179.995 -17.5625 179.1875 C-16.9375 176.5625 -16.9375 176.5625 -14.9375 174.5625 C-13.9475 174.5625 -12.9575 174.5625 -11.9375 174.5625 C-11.6075 173.5725 -11.2775 172.5825 -10.9375 171.5625 C-10.2775 171.5625 -9.6175 171.5625 -8.9375 171.5625 C-8.73125 170.799375 -8.525 170.03625 -8.3125 169.25 C-6.4788752 165.66609698 -4.63397573 165.01209833 -0.9375 163.5625 C1.49141338 162.95527165 3.56713956 162.5625 6.0625 162.5625 C6.3925 160.9125 6.7225 159.2625 7.0625 157.5625 C8.7125 157.2325 10.3625 156.9025 12.0625 156.5625 C12.3925 155.5725 12.7225 154.5825 13.0625 153.5625 C13.7225 153.5625 14.3825 153.5625 15.0625 153.5625 C15.5575 150.5925 15.5575 150.5925 16.0625 147.5625 C17.7125 147.5625 19.3625 147.5625 21.0625 147.5625 C21.5575 144.5925 21.5575 144.5925 22.0625 141.5625 C22.7225 141.5625 23.3825 141.5625 24.0625 141.5625 C24.3925 140.5725 24.7225 139.5825 25.0625 138.5625 C26.0525 138.5625 27.0425 138.5625 28.0625 138.5625 C28.0625 137.9025 28.0625 137.2425 28.0625 136.5625 C28.7225 136.5625 29.3825 136.5625 30.0625 136.5625 C30.3925 134.9125 30.7225 133.2625 31.0625 131.5625 C29.0825 131.5625 27.1025 131.5625 25.0625 131.5625 C26.4375 130.0625 26.4375 130.0625 28.0625 128.5625 C28.7225 128.5625 29.3825 128.5625 30.0625 128.5625 C30.0625 127.5725 30.0625 126.5825 30.0625 125.5625 C31.0525 125.5625 32.0425 125.5625 33.0625 125.5625 C33.0625 124.9025 33.0625 124.2425 33.0625 123.5625 C34.0525 123.5625 35.0425 123.5625 36.0625 123.5625 C36.0625 122.5725 36.0625 121.5825 36.0625 120.5625 C40.5175 120.0675 40.5175 120.0675 45.0625 119.5625 C45.0625 115.6025 45.0625 111.6425 45.0625 107.5625 C43.4125 107.2325 41.7625 106.9025 40.0625 106.5625 C39.7325 104.5825 39.4025 102.6025 39.0625 100.5625 C38.4025 100.5625 37.7425 100.5625 37.0625 100.5625 C36.7325 98.9125 36.4025 97.2625 36.0625 95.5625 C34.4125 95.2325 32.7625 94.9025 31.0625 94.5625 C30.7325 92.9125 30.4025 91.2625 30.0625 89.5625 C29.4025 89.5625 28.7425 89.5625 28.0625 89.5625 C28.0625 88.5725 28.0625 87.5825 28.0625 86.5625 C26.0825 86.0675 26.0825 86.0675 24.0625 85.5625 C24.0625 83.9125 24.0625 82.2625 24.0625 80.5625 C22.4125 80.2325 20.7625 79.9025 19.0625 79.5625 C19.0625 78.5725 19.0625 77.5825 19.0625 76.5625 C18.0725 76.5625 17.0825 76.5625 16.0625 76.5625 C15.7325 74.5825 15.4025 72.6025 15.0625 70.5625 C14.4025 70.5625 13.7425 70.5625 13.0625 70.5625 C12.7325 68.9125 12.4025 67.2625 12.0625 65.5625 C11.0725 65.2325 10.0825 64.9025 9.0625 64.5625 C9.0625 63.9025 9.0625 63.2425 9.0625 62.5625 C8.0725 62.2325 7.0825 61.9025 6.0625 61.5625 C6.0625 59.9125 6.0625 58.2625 6.0625 56.5625 C4.4125 56.2325 2.7625 55.9025 1.0625 55.5625 C0.7325 53.9125 0.4025 52.2625 0.0625 50.5625 C-0.5975 50.5625 -1.2575 50.5625 -1.9375 50.5625 C-2.4325 47.5925 -2.4325 47.5925 -2.9375 44.5625 C-4.5875 44.2325 -6.2375 43.9025 -7.9375 43.5625 C-8.2675 41.5825 -8.5975 39.6025 -8.9375 37.5625 C-9.5975 37.5625 -10.2575 37.5625 -10.9375 37.5625 C-11.2675 35.5825 -11.5975 33.6025 -11.9375 31.5625 C-12.9275 31.5625 -13.9175 31.5625 -14.9375 31.5625 C-14.9375 30.9025 -14.9375 30.2425 -14.9375 29.5625 C-15.5975 29.5625 -16.2575 29.5625 -16.9375 29.5625 C-18.59715421 27.17259793 -19.80344384 25.16575274 -20.4375 22.3125 C-20.685 21.44625 -20.685 21.44625 -20.9375 20.5625 C-21.9275 20.2325 -22.9175 19.9025 -23.9375 19.5625 C-23.9375 18.5725 -23.9375 17.5825 -23.9375 16.5625 C-24.5975 16.5625 -25.2575 16.5625 -25.9375 16.5625 C-25.9375 12.9325 -25.9375 9.3025 -25.9375 5.5625 C-25.2775 5.5625 -24.6175 5.5625 -23.9375 5.5625 C-23.9375 4.9025 -23.9375 4.2425 -23.9375 3.5625 C-21.9575 3.2325 -19.9775 2.9025 -17.9375 2.5625 C-17.9375 1.9025 -17.9375 1.2425 -17.9375 0.5625 C-11.94758377 -0.83895354 -6.08585029 -0.31570688 0 0 Z M178.0625 13.5625 C179.0625 15.5625 179.0625 15.5625 179.0625 15.5625 Z M5.0625 19.5625 C5.3925 21.2125 5.7225 22.8625 6.0625 24.5625 C6.7225 24.5625 7.3825 24.5625 8.0625 24.5625 C8.3925 26.2125 8.7225 27.8625 9.0625 29.5625 C10.7125 29.8925 12.3625 30.2225 14.0625 30.5625 C14.124375 31.325625 14.18625 32.08875 14.25 32.875 C15.32260242 36.42283877 16.93911899 36.76655592 20.0625 38.5625 C20.875 40.75 20.875 40.75 21.0625 42.5625 C21.7225 42.5625 22.3825 42.5625 23.0625 42.5625 C23.3925 43.5525 23.7225 44.5425 24.0625 45.5625 C24.7225 45.5625 25.3825 45.5625 26.0625 45.5625 C26.0625 46.2225 26.0625 46.8825 26.0625 47.5625 C27.0525 47.5625 28.0425 47.5625 29.0625 47.5625 C29.165625 48.490625 29.26875 49.41875 29.375 50.375 C30.0687861 53.59164465 30.40495216 54.72265919 33.0625 56.5625 C34.0525 56.5625 35.0425 56.5625 36.0625 56.5625 C36.0625 57.8825 36.0625 59.2025 36.0625 60.5625 C36.7225 60.5625 37.3825 60.5625 38.0625 60.5625 C38.5575 63.0375 38.5575 63.0375 39.0625 65.5625 C39.7225 65.5625 40.3825 65.5625 41.0625 65.5625 C41.5575 67.5425 41.5575 67.5425 42.0625 69.5625 C43.0525 69.5625 44.0425 69.5625 45.0625 69.5625 C45.0625 70.2225 45.0625 70.8825 45.0625 71.5625 C46.0525 72.0575 46.0525 72.0575 47.0625 72.5625 C47.6875 75.125 47.6875 75.125 48.0625 77.5625 C49.7125 77.8925 51.3625 78.2225 53.0625 78.5625 C53.5575 81.5325 53.5575 81.5325 54.0625 84.5625 C54.7225 84.5625 55.3825 84.5625 56.0625 84.5625 C56.3925 85.5525 56.7225 86.5425 57.0625 87.5625 C57.7225 87.5625 58.3825 87.5625 59.0625 87.5625 C59.0625 88.2225 59.0625 88.8825 59.0625 89.5625 C60.0525 89.5625 61.0425 89.5625 62.0625 89.5625 C62.18625 90.531875 62.31 91.50125 62.4375 92.5 C62.64375 93.510625 62.85 94.52125 63.0625 95.5625 C64.0525 96.0575 64.0525 96.0575 65.0625 96.5625 C65.3925 97.5525 65.7225 98.5425 66.0625 99.5625 C67.0525 99.5625 68.0425 99.5625 69.0625 99.5625 C69.0625 100.5525 69.0625 101.5425 69.0625 102.5625 C69.7225 102.5625 70.3825 102.5625 71.0625 102.5625 C71.3925 103.2225 71.7225 103.8825 72.0625 104.5625 C72.0625 103.9025 72.0625 103.2425 72.0625 102.5625 C73.0525 102.5625 74.0425 102.5625 75.0625 102.5625 C75.0625 103.5525 75.0625 104.5425 75.0625 105.5625 C76.0525 105.5625 77.0425 105.5625 78.0625 105.5625 C77.98 106.305 77.8975 107.0475 77.8125 107.8125 C77.77545641 110.71897784 77.77545641 110.71897784 80.125 112.5625 C80.764375 113.2225 81.40375 113.8825 82.0625 114.5625 C81.8125 117.3125 81.8125 117.3125 81.0625 119.5625 C82.7125 119.8925 84.3625 120.2225 86.0625 120.5625 C86.3925 121.5525 86.7225 122.5425 87.0625 123.5625 C87.7225 123.5625 88.3825 123.5625 89.0625 123.5625 C89.3925 125.2125 89.7225 126.8625 90.0625 128.5625 C90.7225 128.5625 91.3825 128.5625 92.0625 128.5625 C92.0625 129.5525 92.0625 130.5425 92.0625 131.5625 C93.0525 131.5625 94.0425 131.5625 95.0625 131.5625 C95.3925 133.2125 95.7225 134.8625 96.0625 136.5625 C96.7225 136.5625 97.3825 136.5625 98.0625 136.5625 C98.3925 137.5525 98.7225 138.5425 99.0625 139.5625 C100.0525 139.5625 101.0425 139.5625 102.0625 139.5625 C102.0625 140.2225 102.0625 140.8825 102.0625 141.5625 C102.7225 141.5625 103.3825 141.5625 104.0625 141.5625 C104.5575 145.0275 104.5575 145.0275 105.0625 148.5625 C105.7225 148.5625 106.3825 148.5625 107.0625 148.5625 C107.5575 151.0375 107.5575 151.0375 108.0625 153.5625 C109.7125 153.8925 111.3625 154.2225 113.0625 154.5625 C113.5575 157.0375 113.5575 157.0375 114.0625 159.5625 C114.7225 159.5625 115.3825 159.5625 116.0625 159.5625 C116.0625 160.5525 116.0625 161.5425 116.0625 162.5625 C117.0525 162.8925 118.0425 163.2225 119.0625 163.5625 C119.3925 164.5525 119.7225 165.5425 120.0625 166.5625 C120.7225 166.5625 121.3825 166.5625 122.0625 166.5625 C122.5575 169.0375 122.5575 169.0375 123.0625 171.5625 C123.7225 171.5625 124.3825 171.5625 125.0625 171.5625 C125.0625 172.5525 125.0625 173.5425 125.0625 174.5625 C126.0525 174.8925 127.0425 175.2225 128.0625 175.5625 C128.3925 176.5525 128.7225 177.5425 129.0625 178.5625 C129.7225 178.5625 130.3825 178.5625 131.0625 178.5625 C131.5575 181.0375 131.5575 181.0375 132.0625 183.5625 C134.94461302 184.52320434 136.76100044 184.66831883 139.75 184.625 C140.55824219 184.61597656 141.36648438 184.60695312 142.19921875 184.59765625 C142.81410156 184.58605469 143.42898438 184.57445312 144.0625 184.5625 C141.38607511 182.37759993 141.38607511 182.37759993 139.0625 182.5625 C138.7325 180.5825 138.4025 178.6025 138.0625 176.5625 C137.4025 176.5625 136.7425 176.5625 136.0625 176.5625 C135.7325 174.9125 135.4025 173.2625 135.0625 171.5625 C133.4125 171.2325 131.7625 170.9025 130.0625 170.5625 C129.7325 168.5825 129.4025 166.6025 129.0625 164.5625 C127.4125 164.5625 125.7625 164.5625 124.0625 164.5625 C124.0625 162.9125 124.0625 161.2625 124.0625 159.5625 C123.0725 159.2325 122.0825 158.9025 121.0625 158.5625 C120.5675 156.0875 120.5675 156.0875 120.0625 153.5625 C119.4025 153.5625 118.7425 153.5625 118.0625 153.5625 C118.0625 152.5725 118.0625 151.5825 118.0625 150.5625 C117.0725 150.5625 116.0825 150.5625 115.0625 150.5625 C114.7325 149.2425 114.4025 147.9225 114.0625 146.5625 C113.4025 146.5625 112.7425 146.5625 112.0625 146.5625 C111.7325 144.9125 111.4025 143.2625 111.0625 141.5625 C109.4125 141.2325 107.7625 140.9025 106.0625 140.5625 C105.89973958 138.54427083 105.73697917 136.52604167 105.57421875 134.5078125 C105.18856964 132.16730784 105.18856964 132.16730784 102.0625 130.5625 C101.0725 130.5625 100.0825 130.5625 99.0625 130.5625 C99.0625 129.9025 99.0625 129.2425 99.0625 128.5625 C98.4025 128.5625 97.7425 128.5625 97.0625 128.5625 C96.7325 126.5825 96.4025 124.6025 96.0625 122.5625 C94.4125 122.2325 92.7625 121.9025 91.0625 121.5625 C90.7325 119.5825 90.4025 117.6025 90.0625 115.5625 C89.4025 115.5625 88.7425 115.5625 88.0625 115.5625 C86.94408632 113.47479447 86.0916824 111.70841199 85.625 109.375 C85.439375 108.776875 85.25375 108.17875 85.0625 107.5625 C83.5775 107.0675 83.5775 107.0675 82.0625 106.5625 C81.7325 105.5725 81.4025 104.5825 81.0625 103.5625 C80.4025 103.5625 79.7425 103.5625 79.0625 103.5625 C78.7325 101.9125 78.4025 100.2625 78.0625 98.5625 C76.4125 98.2325 74.7625 97.9025 73.0625 97.5625 C72.7325 95.5825 72.4025 93.6025 72.0625 91.5625 C71.4025 91.5625 70.7425 91.5625 70.0625 91.5625 C69.7325 90.5725 69.4025 89.5825 69.0625 88.5625 C68.0725 88.5625 67.0825 88.5625 66.0625 88.5625 C66.0625 87.9025 66.0625 87.2425 66.0625 86.5625 C65.4025 86.5625 64.7425 86.5625 64.0625 86.5625 C63.5675 83.5925 63.5675 83.5925 63.0625 80.5625 C62.4025 80.5625 61.7425 80.5625 61.0625 80.5625 C61.0625 79.5725 61.0625 78.5825 61.0625 77.5625 C60.0725 77.2325 59.0825 76.9025 58.0625 76.5625 C56.93788714 73.76425068 56.14949585 70.92965665 55.3203125 68.03125 C54.90523437 67.2165625 54.49015625 66.401875 54.0625 65.5625 C51.51294496 64.62843144 51.51294496 64.62843144 49.0625 64.5625 C48.7325 63.5725 48.4025 62.5825 48.0625 61.5625 C47.4025 61.5625 46.7425 61.5625 46.0625 61.5625 C45.5675 58.5925 45.5675 58.5925 45.0625 55.5625 C44.0725 55.5625 43.0825 55.5625 42.0625 55.5625 C42.0625 54.9025 42.0625 54.2425 42.0625 53.5625 C41.0725 53.0675 41.0725 53.0675 40.0625 52.5625 C39.918125 51.77875 39.77375 50.995 39.625 50.1875 C39.00309475 47.28527549 38.43301738 46.29480117 36.0625 44.5625 C35.0725 44.5625 34.0825 44.5625 33.0625 44.5625 C33.0625 42.5825 33.0625 40.6025 33.0625 38.5625 C31.4125 38.2325 29.7625 37.9025 28.0625 37.5625 C28.0625 36.5725 28.0625 35.5825 28.0625 34.5625 C27.0725 34.5625 26.0825 34.5625 25.0625 34.5625 C24.7325 32.9125 24.4025 31.2625 24.0625 29.5625 C23.4025 29.5625 22.7425 29.5625 22.0625 29.5625 C21.7325 28.2425 21.4025 26.9225 21.0625 25.5625 C20.4025 25.5625 19.7425 25.5625 19.0625 25.5625 C19.0625 23.9125 19.0625 22.2625 19.0625 20.5625 C15.91319107 19.51273036 13.67435544 19.46118405 10.375 19.5 C9.38113281 19.50902344 8.38726562 19.51804687 7.36328125 19.52734375 C6.60402344 19.53894531 5.84476563 19.55054687 5.0625 19.5625 Z M86.0625 65.5625 C86.0625 66.5525 86.0625 67.5425 86.0625 68.5625 C85.0725 68.8925 84.0825 69.2225 83.0625 69.5625 C84.3825 69.5625 85.7025 69.5625 87.0625 69.5625 C86.7325 68.2425 86.4025 66.9225 86.0625 65.5625 Z M54.0625 150.5625 C55.0625 153.5625 55.0625 153.5625 55.0625 153.5625 Z M-0.9375 165.5625 C-1.370625 166.366875 -1.80375 167.17125 -2.25 168 C-3.9375 170.5625 -3.9375 170.5625 -6.9375 171.5625 C-6.9375 172.5525 -6.9375 173.5425 -6.9375 174.5625 C-6.2775 174.5625 -5.6175 174.5625 -4.9375 174.5625 C-4.9375 173.9025 -4.9375 173.2425 -4.9375 172.5625 C-3.9475 172.2325 -2.9575 171.9025 -1.9375 171.5625 C-1.9375 170.9025 -1.9375 170.2425 -1.9375 169.5625 C-1.2775 169.5625 -0.6175 169.5625 0.0625 169.5625 C-0.2675 168.2425 -0.5975 166.9225 -0.9375 165.5625 Z M39.0625 167.5625 C40.0625 169.5625 40.0625 169.5625 40.0625 169.5625 Z M-9.9375 176.5625 C-10.9275 178.0475 -10.9275 178.0475 -11.9375 179.5625 C-12.9275 179.8925 -13.9175 180.2225 -14.9375 180.5625 C-15.67073796 182.57758358 -15.67073796 182.57758358 -15.9375 184.5625 C-13.57785727 184.15566505 -12.07815912 183.66435661 -10.125 182.25 C-8.67691863 180.60176569 -8.67691863 180.60176569 -9.25 178.375 C-9.5903125 177.4778125 -9.5903125 177.4778125 -9.9375 176.5625 Z M-18.9375 185.5625 C-18.6075 186.8825 -18.2775 188.2025 -17.9375 189.5625 C-17.6075 188.2425 -17.2775 186.9225 -16.9375 185.5625 C-17.5975 185.5625 -18.2575 185.5625 -18.9375 185.5625 Z M23.0625 185.5625 C24.0625 187.5625 24.0625 187.5625 24.0625 187.5625 Z " fill="#EEB9D6" transform="translate(127.9375,52.4375)"/>
<path d="M0 0 C2.475 0.495 2.475 0.495 5 1 C4.67 1.99 4.34 2.98 4 4 C2.68 4 1.36 4 0 4 C0 4.99 0 5.98 0 7 C-0.99 7 -1.98 7 -3 7 C-3.33 8.32 -3.66 9.64 -4 11 C-4.66 11 -5.32 11 -6 11 C-6 11.66 -6 12.32 -6 13 C-7.32 13 -8.64 13 -10 13 C-10 13.99 -10 14.98 -10 16 C-10.66 16 -11.32 16 -12 16 C-11.34 17.32 -10.68 18.64 -10 20 C-10.99 20 -11.98 20 -13 20 C-13 20.99 -13 21.98 -13 23 C-16.96 24.98 -16.96 24.98 -21 27 C-21 27.66 -21 28.32 -21 29 C-22.65 29 -24.3 29 -26 29 C-26.33 28.01 -26.66 27.02 -27 26 C-26.21625 25.7525 -25.4325 25.505 -24.625 25.25 C-21.67682892 23.84610901 -21.0975223 22.99324263 -20 20 C-19.34 20 -18.68 20 -18 20 C-17.67 19.01 -17.34 18.02 -17 17 C-16.01 17 -15.02 17 -14 17 C-14 16.34 -14 15.68 -14 15 C-13.34 15 -12.68 15 -12 15 C-11.87625 14.21625 -11.7525 13.4325 -11.625 12.625 C-11 10 -11 10 -9 8 C-8.01 8 -7.02 8 -6 8 C-5.7525 7.195625 -5.505 6.39125 -5.25 5.5625 C-4 3 -4 3 -1.875 2.1875 C-1.25625 2.125625 -0.6375 2.06375 0 2 C0 1.34 0 0.68 0 0 Z M-18 20 C-17 23 -17 23 -17 23 Z " fill="#EFB9D6" transform="translate(236,80)"/>
<path d="M0 0 C0.70744354 0.00141495 1.41488708 0.0028299 2.14376831 0.00428772 C4.40578419 0.00989025 6.66770148 0.02244307 8.9296875 0.03515625 C10.46223815 0.04017093 11.99479036 0.04473389 13.52734375 0.04882812 C17.28649638 0.05986048 21.04557522 0.07712673 24.8046875 0.09765625 C23.74682617 1.5793457 23.74682617 1.5793457 21.8046875 3.09765625 C18.6184082 3.43823242 18.6184082 3.43823242 14.73046875 3.390625 C14.0466362 3.38638016 13.36280365 3.38213531 12.6582489 3.37776184 C10.47749189 3.36098978 8.29766441 3.32334282 6.1171875 3.28515625 C4.63738315 3.27010739 3.1575643 3.25641933 1.67773438 3.24414062 C-1.94691586 3.21109194 -5.57102344 3.15932071 -9.1953125 3.09765625 C-9.1953125 2.43765625 -9.1953125 1.77765625 -9.1953125 1.09765625 C-6.23720774 -0.38139613 -3.240597 -0.02425278 0 0 Z " fill="#EFB9D6" transform="translate(102.1953125,259.90234375)"/>
<path d="M0 0 C2.64 0 5.28 0 8 0 C8 0.66 8 1.32 8 2 C7.01 2.33 6.02 2.66 5 3 C4.566875 4.2375 4.566875 4.2375 4.125 5.5 C3.75375 6.325 3.3825 7.15 3 8 C0.375 8.8125 0.375 8.8125 -2 9 C-2 9.66 -2 10.32 -2 11 C-2.66 11 -3.32 11 -4 11 C-4.33 11.99 -4.66 12.98 -5 14 C-5.33 13.01 -5.66 12.02 -6 11 C-6.99 10.67 -7.98 10.34 -9 10 C-8.01 9.67 -7.02 9.34 -6 9 C-6 8.34 -6 7.68 -6 7 C-5.34 7 -4.68 7 -4 7 C-3.67 5.68 -3.34 4.36 -3 3 C-2.34 3 -1.68 3 -1 3 C-0.67 2.01 -0.34 1.02 0 0 Z " fill="#EFB9D6" transform="translate(252,61)"/>
<path d="M0 0 C0.66 0 1.32 0 2 0 C2.125 2.875 2.125 2.875 2 6 C0 8 0 8 -2.4375 8.8125 C-5.63143141 10.29261455 -6.33253265 11.98267813 -8 15 C-8.66 15 -9.32 15 -10 15 C-9.75 12.125 -9.75 12.125 -9 9 C-7 7.875 -7 7.875 -5 7 C-4.19471111 4.94999129 -4.19471111 4.94999129 -4 3 C-3.01 3 -2.02 3 -1 3 C-0.67 2.01 -0.34 1.02 0 0 Z " fill="#EFB9D6" transform="translate(117,200)"/>
<path d="M0 0 C0.98120464 3.05263664 0.98120464 4.94736336 0 8 C-0.66 8 -1.32 8 -2 8 C-2 8.66 -2 9.32 -2 10 C-3.98 10.33 -5.96 10.66 -8 11 C-7.67 9.35 -7.34 7.7 -7 6 C-6.34 6 -5.68 6 -5 6 C-5 4.68 -5 3.36 -5 2 C-3.35 1.34 -1.7 0.68 0 0 Z " fill="#EFB9D6" transform="translate(305,80)"/>
<path d="M0 0 C0 0.99 0 1.98 0 3 C-0.99 3.33 -1.98 3.66 -3 4 C-3 5.32 -3 6.64 -3 8 C-4.32 8 -5.64 8 -7 8 C-6.875 5.6875 -6.875 5.6875 -6 3 C-2.9375 1.1875 -2.9375 1.1875 0 0 Z " fill="#EFB9D6" transform="translate(151,189)"/>
<path d="M0 0 C1.32 0 2.64 0 4 0 C3.67 1.65 3.34 3.3 3 5 C1.68 5.33 0.36 5.66 -1 6 C-0.67 4.02 -0.34 2.04 0 0 Z " fill="#EFB9D6" transform="translate(240,73)"/>
<path d="M0 0 C0.99 0 1.98 0 3 0 C2.67 1.98 2.34 3.96 2 6 C0.68 6 -0.64 6 -2 6 C-2 5.01 -2 4.02 -2 3 C-1.34 3 -0.68 3 0 3 C0 2.01 0 1.02 0 0 Z " fill="#EFB9D6" transform="translate(215,109)"/>
<path d="M0 0 C0.66 0.33 1.32 0.66 2 1 C1.375 2.9375 1.375 2.9375 0 5 C-3.125 5.75 -3.125 5.75 -6 6 C-5.67 5.01 -5.34 4.02 -5 3 C-4.01 3 -3.02 3 -2 3 C-2 2.34 -2 1.68 -2 1 C-1.34 0.67 -0.68 0.34 0 0 Z " fill="#EFB9D6" transform="translate(224,103)"/>
<path d="M0 0 C1.65 0 3.3 0 5 0 C4.67 0.99 4.34 1.98 4 3 C2.35 3 0.7 3 -1 3 C-0.67 2.01 -0.34 1.02 0 0 Z " fill="#EFB9D6" transform="translate(120,197)"/>
<path d="M0 0 C1.65 0 3.3 0 5 0 C5 0.99 5 1.98 5 3 C3.35 3 1.7 3 0 3 C0 2.01 0 1.02 0 0 Z " fill="#EFB9D6" transform="translate(87,233)"/>
<path d="M0 0 C0.99 0 1.98 0 3 0 C3 1.65 3 3.3 3 5 C2.01 5 1.02 5 0 5 C0 3.35 0 1.7 0 0 Z " fill="#EFB9D6" transform="translate(137,201)"/>
<path d="M0 0 C0.66 0.33 1.32 0.66 2 1 C1.34 1.66 0.68 2.32 0 3 C-0.99 3 -1.98 3 -3 3 C-3 2.34 -3 1.68 -3 1 C-2.01 0.67 -1.02 0.34 0 0 Z " fill="#EFB9D6" transform="translate(77,242)"/>
<path d="M0 0 C1.32 0 2.64 0 4 0 C4 0.66 4 1.32 4 2 C2.35 2 0.7 2 -1 2 C-0.67 1.34 -0.34 0.68 0 0 Z " fill="#EFB9D6" transform="translate(121,207)"/>
<path d="M0 0 C0.66 0 1.32 0 2 0 C1.34 1.32 0.68 2.64 0 4 C-0.33 3.34 -0.66 2.68 -1 2 C-0.67 1.34 -0.34 0.68 0 0 Z " fill="#EEB9D6" transform="translate(102,216)"/>
<path d="M0 0 C0.99 0.33 1.98 0.66 3 1 C1.68 1.33 0.36 1.66 -1 2 C-0.67 1.34 -0.34 0.68 0 0 Z " fill="#EFB9D6" transform="translate(85,261)"/>
<path d="M0 0 C0.99 0 1.98 0 3 0 C3 0.66 3 1.32 3 2 C2.01 2 1.02 2 0 2 C0 1.34 0 0.68 0 0 Z " fill="#EFB9D6" transform="translate(74,240)"/>
<path d="M0 0 C0.99 0 1.98 0 3 0 C3 0.66 3 1.32 3 2 C2.01 2 1.02 2 0 2 C0 1.34 0 0.68 0 0 Z " fill="#EFB9D6" transform="translate(92,227)"/>
<path d="M0 0 C0.99 0.33 1.98 0.66 3 1 C1.68 1.33 0.36 1.66 -1 2 C-0.67 1.34 -0.34 0.68 0 0 Z " fill="#EFB9D6" transform="translate(97,222)"/>
<path d="M0 0 C0.66 0 1.32 0 2 0 C2 0.99 2 1.98 2 3 C1.34 3 0.68 3 0 3 C0 2.01 0 1.02 0 0 Z " fill="#EFB9D6" transform="translate(116,212)"/>
<path d="M0 0 C0.66 0 1.32 0 2 0 C2 0.99 2 1.98 2 3 C1.34 3 0.68 3 0 3 C0 2.01 0 1.02 0 0 Z " fill="#EFB9D6" transform="translate(141,200)"/>
<path d="M0 0 C0.99 0.33 1.98 0.66 3 1 C1.68 1.33 0.36 1.66 -1 2 C-0.67 1.34 -0.34 0.68 0 0 Z " fill="#EFB9D6" transform="translate(151,167)"/>
<path d="M0 0 C0.66 0 1.32 0 2 0 C2 0.99 2 1.98 2 3 C1.34 3 0.68 3 0 3 C0 2.01 0 1.02 0 0 Z " fill="#EFB9D6" transform="translate(207,109)"/>
<path d="M0 0 C0.99 0 1.98 0 3 0 C3 0.66 3 1.32 3 2 C2.01 2 1.02 2 0 2 C0 1.34 0 0.68 0 0 Z " fill="#EFB9D6" transform="translate(263,52)"/>
<path d="M0 0 C0.66 0.66 1.32 1.32 2 2 C1.34 2 0.68 2 0 2 C0 1.34 0 0.68 0 0 Z " fill="#EFB9D6" transform="translate(86,243)"/>
<path d="M0 0 C0.66 0.66 1.32 1.32 2 2 C1.34 2 0.68 2 0 2 C0 1.34 0 0.68 0 0 Z " fill="#EFB9D6" transform="translate(83,240)"/>
<path d="M0 0 C0.66 0 1.32 0 2 0 C1.67 0.66 1.34 1.32 1 2 C0.67 1.34 0.34 0.68 0 0 Z " fill="#EFB9D6" transform="translate(111,218)"/>
<path d="M0 0 C0.99 0.495 0.99 0.495 2 1 C1.01 1.495 1.01 1.495 0 2 C0 1.34 0 0.68 0 0 Z " fill="#EFB9D6" transform="translate(128,191)"/>
<path d="M0 0 C0.99 0.495 0.99 0.495 2 1 C1.01 1.495 1.01 1.495 0 2 C0 1.34 0 0.68 0 0 Z " fill="#EFB9D6" transform="translate(158,163)"/>
<path d="M0 0 C2 1 2 1 2 1 Z " fill="#EFB9D6" transform="translate(143,184)"/>
</svg>
