<?xml version="1.0" encoding="UTF-8"?>
<svg version="1.1" xmlns="http://www.w3.org/2000/svg" width="6000" height="3774">
<path d="M0 0 C1980 0 3960 0 6000 0 C6000 1217.7 6000 2435.4 6000 3690 C5982.35671897 3699.40974988 5982.35671897 3699.40974988 5973.42553711 3703.32446289 C5972.75730927 3703.61757355 5972.08908142 3703.9106842 5971.40060425 3704.212677 C5970.71152985 3704.51374359 5970.02245544 3704.81481018 5969.3125 3705.125 C5968.58934601 3705.44226044 5967.86619202 3705.75952087 5967.12112427 3706.08639526 C5891.17503929 3739.32934039 5811.2021177 3761.90270782 5700 3773 C5698.98770325 3773.06355179 5698.98770325 3773.06355179 5697.95495605 3773.12838745 C5683.42830878 3774.02025954 5668.92640157 3774.20156272 5654.375 3774.1875 C5653.21225555 3774.18689575 5652.04951111 3774.1862915 5650.85153198 3774.18566895 C5631.49042079 3774.15848545 5612.29053209 3773.67696877 5593 3772 C5592.28183105 3771.9391925 5591.56366211 3771.87838501 5590.82373047 3771.81573486 C5525.68726848 3766.27814071 5462.03843391 3752.09317166 5400.02178955 3731.66546631 C5398.17420404 3731.05733877 5396.32521012 3730.4534945 5394.47607422 3729.85009766 C5349.36682882 3715.05239221 5305.99309362 3695.72189183 5263.47705078 3674.71728516 C5260.41379314 3673.20436883 5257.34637153 3671.70037963 5254.27734375 3670.19921875 C5242.9795185 3664.64498668 5231.90822556 3658.70753891 5220.89794922 3652.60498047 C5217.94733552 3650.97083266 5214.99127583 3649.34681869 5212.03515625 3647.72265625 C5198.33468247 3640.15842021 5184.91606267 3632.19867195 5171.578125 3624.01953125 C5167.64821429 3621.60983987 5163.70865698 3619.22249447 5159.734375 3616.88671875 C5147.33480341 3609.59784037 5135.37524156 3601.70289109 5123.45269775 3593.66630554 C5119.08343085 3590.72269407 5114.69957469 3587.80173049 5110.30859375 3584.890625 C5089.89490735 3571.35141648 5069.78859325 3557.44124533 5050 3543 C5049.22269531 3542.4328125 5048.44539063 3541.865625 5047.64453125 3541.28125 C5036.96644218 3533.47736109 5026.39385099 3525.54683509 5015.91650391 3517.47558594 C5014.1274425 3516.0981226 5012.33580198 3514.72411115 5010.54296875 3513.3515625 C5003.83027544 3508.20853885 4997.16452555 3503.00844691 4990.5234375 3497.7734375 C4988.22155692 3495.95910361 4985.91439371 3494.15191409 4983.6015625 3492.3515625 C4976.41128831 3486.74605817 4969.34089922 3481.01247233 4962.3215332 3475.19433594 C4957.89467568 3471.53342445 4953.41621799 3467.95511724 4948.875 3464.4375 C4941.96008879 3459.06638752 4935.38663676 3453.33298434 4928.80078125 3447.56689453 C4926.03691819 3445.16200392 4923.23943747 3442.79781382 4920.4375 3440.4375 C4914.78194557 3435.66859949 4909.15870126 3430.86322396 4903.546875 3426.04296875 C4901.16616839 3423.99832321 4898.78047191 3421.95973474 4896.390625 3419.92578125 C4890.957691 3415.29641334 4885.56889841 3410.64330933 4880.3125 3405.8125 C4876.72032252 3402.51129419 4873.04949941 3399.37277707 4869.25 3396.3125 C4865.48556733 3393.27425576 4862.01792578 3390.13673701 4858.65625 3386.6640625 C4856.31448667 3384.31125312 4853.80542739 3382.1752333 4851.29296875 3380.0078125 C4848.53094206 3377.58927465 4845.82598859 3375.11112266 4843.125 3372.625 C4839.43460926 3369.22949427 4835.73294545 3365.84884817 4832 3362.5 C4823.12331153 3354.526504 4814.3657809 3346.42817856 4805.65332031 3338.27612305 C4802.02675802 3334.88447788 4798.38527224 3331.51029192 4794.72705078 3328.15283203 C4789.97655929 3323.79252464 4785.32352103 3319.36718183 4780.80078125 3314.76953125 C4779.05173855 3313.0508407 4777.24439502 3311.46103409 4775.375 3309.875 C4770.75807383 3305.91502775 4766.52702232 3301.58138227 4762.27490234 3297.23779297 C4759.40146203 3294.32174676 4756.49308384 3291.52896654 4753.375 3288.875 C4746.64105908 3283.06227257 4740.52114065 3276.57481163 4734.27246094 3270.25195312 C4732.57962012 3268.54082693 4730.88362463 3266.8328703 4729.1875 3265.125 C4728.68516846 3264.61437012 4728.18283691 3264.10374023 4727.6652832 3263.57763672 C4724.99324853 3260.8877391 4722.25639253 3258.33574973 4719.37391663 3255.87193298 C4714.66707206 3251.76800253 4710.25810688 3247.39850336 4705.84936523 3242.97875977 C4704.97186615 3242.103013 4704.09436707 3241.22726624 4703.1902771 3240.32498169 C4700.80624309 3237.94457046 4698.42444995 3235.56196234 4696.04382205 3233.17814755 C4693.53821375 3230.66998679 4691.03014289 3228.16429031 4688.5224762 3225.65818787 C4684.31372279 3221.45124778 4680.10706841 3217.24221749 4675.90161133 3213.03198242 C4671.05697525 3208.18190535 4666.20874758 3203.33544092 4661.35863918 3198.49083668 C4657.17565981 3194.31241236 4652.99465363 3190.13202114 4648.8152557 3185.95001453 C4646.32733872 3183.4605479 4643.83877342 3180.97173942 4641.34841728 3178.4847126 C4638.56980931 3175.70956079 4635.79534403 3172.93028938 4633.02124023 3170.15063477 C4631.80146736 3168.93389824 4631.80146736 3168.93389824 4630.55705261 3167.69258118 C4626.37374171 3163.49382516 4622.36281406 3159.21072208 4618.49499607 3154.71972561 C4616.71398866 3152.6709951 4614.84733995 3150.73342068 4612.91992188 3148.82226562 C4612.20227661 3148.10792358 4611.48463135 3147.39358154 4610.74523926 3146.65759277 C4609.61837708 3145.5431781 4609.61837708 3145.5431781 4608.46875 3144.40625 C4607.27662903 3143.21980896 4607.27662903 3143.21980896 4606.0604248 3142.00939941 C4603.54271568 3139.50380477 4601.02178554 3137.00149142 4598.5 3134.5 C4595.17411811 3131.2008832 4591.85167664 3127.89835626 4588.53125 3124.59375 C4587.40438782 3123.47933533 4587.40438782 3123.47933533 4586.25476074 3122.34240723 C4582.21278259 3118.31903374 4578.37384304 3114.19710477 4574.65197754 3109.87683105 C4572.11020379 3106.98909209 4569.39670906 3104.29150276 4566.65625 3101.59375 C4566.08346313 3101.02474976 4565.51067627 3100.45574951 4564.92053223 3099.86950684 C4563.11614749 3098.07717018 4561.3085264 3096.28815684 4559.5 3094.5 C4546.09657284 3081.24753663 4546.09657284 3081.24753663 4540.83398438 3075.05664062 C4536.46139856 3070.15319775 4531.67421166 3065.61439542 4527 3061 C4521.11055822 3055.18592585 4515.26276486 3049.40963243 4509.88671875 3043.109375 C4505.48952854 3038.19326172 4500.69260432 3033.63255271 4496 3029 C4484.27786752 3017.42787653 4484.27786752 3017.42787653 4480.625 3013.125 C4475.15459733 3006.71416491 4468.98688935 3000.92204939 4463 2995 C4460.51780934 2992.54469227 4458.03915358 2990.08589153 4455.5625 2987.625 C4455.00812256 2987.0789209 4454.45374512 2986.5328418 4453.88256836 2985.97021484 C4451.04406503 2983.14915697 4448.33696187 2980.26748501 4445.73069763 2977.22970581 C4442.32011462 2973.31592914 4438.7451499 2969.62201737 4435.05493164 2965.97314453 C4434.07316452 2964.99597725 4434.07316452 2964.99597725 4433.07156372 2963.99906921 C4431.66606221 2962.60066198 4430.25943184 2961.20338854 4428.85176277 2959.80716324 C4426.62629872 2957.59922155 4424.40451086 2955.38764028 4422.18370056 2953.17501831 C4415.87469928 2946.89037185 4409.55993077 2940.61154286 4403.2409668 2934.33691406 C4399.36431777 2930.48696125 4395.49248374 2926.63222107 4391.6236248 2922.77444077 C4390.14903657 2921.30607493 4388.67255188 2919.8396111 4387.19417 2918.37506485 C4385.13802975 2916.33802193 4383.08801356 2914.29500289 4381.03930664 2912.25048828 C4380.42380447 2911.64374771 4379.80830231 2911.03700714 4379.17414856 2910.41188049 C4375 2906.22789906 4375 2906.22789906 4375 2904 C4374.44519958 2903.77084396 4373.89039917 2903.54168793 4373.31878662 2903.30558777 C4370.34566099 2901.63157584 4368.30327541 2899.53458208 4365.89941406 2897.1105957 C4365.40449463 2896.61436203 4364.9095752 2896.11812836 4364.3996582 2895.6068573 C4362.76699858 2893.96771611 4361.14143637 2892.32171273 4359.515625 2890.67578125 C4358.37516674 2889.52904624 4357.23418757 2888.38282909 4356.0927124 2887.23710632 C4353.08634927 2884.21744326 4350.08559325 2881.1922745 4347.08642578 2878.16546631 C4342.30208102 2873.33802937 4337.51114931 2868.51715569 4332.71672821 2863.69972801 C4331.05268971 2862.02557134 4329.39217108 2860.3479835 4327.73199463 2858.66999817 C4322.85774781 2853.75729573 4317.96612658 2848.92249725 4312.67547607 2844.45158386 C4309.61924388 2841.80375295 4306.82704225 2838.88784746 4304 2836 C4299.75042689 2831.70082317 4295.47208324 2827.54459924 4290.85546875 2823.63671875 C4287.83175402 2820.96948407 4285.05307203 2818.06066135 4282.22265625 2815.19140625 C4279.5729856 2812.57898932 4276.78827197 2810.16697379 4273.96484375 2807.74609375 C4271.26621639 2805.34790999 4268.75685425 2802.78388476 4266.25 2800.1875 C4264.30309774 2798.29467836 4262.31553052 2796.51310243 4260.265625 2794.734375 C4255.98570902 2791.01666815 4251.86134272 2787.15223501 4247.75 2783.25 C4240.89110935 2776.76738898 4233.97403827 2770.35839903 4227 2764 C4225.98265676 2763.06685976 4224.96573799 2762.13325655 4223.94921875 2761.19921875 C4218.51733592 2756.20829423 4213.06127677 2751.24629009 4207.5703125 2746.3203125 C4204.65571249 2743.68919942 4201.76481639 2741.03325191 4198.875 2738.375 C4193.26871382 2733.22610109 4187.57754459 2728.19596983 4181.78515625 2723.2578125 C4180.58578591 2722.23455265 4179.38657183 2721.21110963 4178.1875 2720.1875 C4177.58139893 2719.67026367 4176.97529785 2719.15302734 4176.35083008 2718.62011719 C4172.60948459 2715.4151062 4168.9389307 2712.14798497 4165.3125 2708.8125 C4160.92644354 2704.78606164 4156.38258372 2701.01890278 4151.75 2697.28125 C4148.91900422 2694.93281032 4146.20616402 2692.49090098 4143.5 2690 C4139.10621452 2685.96045182 4134.58161176 2682.15320381 4129.9375 2678.40625 C4126.63646697 2675.7022123 4123.41234787 2672.91888768 4120.1875 2670.125 C4114.96674949 2665.61298425 4109.62683491 2661.29744954 4104.17382812 2657.0703125 C4100.25436274 2654.02038292 4096.45106887 2650.86460158 4092.6875 2647.625 C4087.10168311 2642.83077218 4081.30872837 2638.35082054 4075.44042969 2633.90893555 C4070.71093413 2630.32471564 4066.05272689 2626.66743913 4061.4375 2622.9375 C4053.7707565 2616.75943475 4045.91443828 2610.85582133 4038 2605 C4037.25202148 2604.44554199 4036.50404297 2603.89108398 4035.73339844 2603.31982422 C4027.12435625 2596.9413557 4018.48669773 2590.60210057 4009.8125 2584.3125 C4008.83627686 2583.60202515 4008.83627686 2583.60202515 4007.84033203 2582.87719727 C3994.53317623 2573.26000285 3980.85009706 2564.16330922 3967.1875 2555.0625 C3966.39675079 2554.53575684 3965.60600159 2554.00901367 3964.79129028 2553.46630859 C3892.19203574 2505.1406588 3814.71146623 2464.1442108 3606 2402 C3605.12339722 2401.82639954 3604.24679443 2401.65279907 3603.34362793 2401.47393799 C3497.75327312 2380.67216824 3389.95804899 2374.80538409 2500 2497 C2499.24746193 2497.17882469 2498.49492386 2497.35764938 2497.7195816 2497.54189301 C2472.12941258 2503.62436816 2446.55968149 2509.79074862 2421 2516 C2420.11826363 2516.21419334 2419.23652725 2516.42838669 2418.32807159 2516.64907074 C2375.05841779 2527.16241602 2331.81880294 2537.79669023 2288.60546875 2548.5390625 C2287.86262217 2548.72372291 2287.1197756 2548.90838331 2286.35441852 2549.09863949 C2278.76102524 2550.98628677 2271.16773344 2552.87434209 2263.57446998 2554.76251149 C2208.60712581 2568.43084647 2153.62411901 2582.01951535 2098.53622913 2595.19573593 C2092.65380886 2596.60306759 2086.77265253 2598.01559206 2080.89208984 2599.43066406 C1996.31484476 2619.77821843 1911.44873175 2638.95102005 1154 2679 C1153.04270996 2678.84571533 1152.08541992 2678.69143066 1151.09912109 2678.5324707 C1066.96418806 2664.92733229 983.60578764 2645.7827563 813.98242188 2597.90710449 C810.9292518 2596.97848191 807.87489814 2596.05383759 804.8203125 2595.12988281 C764.63392951 2582.96113366 724.74785928 2569.90552084 684.91359711 2556.63728333 C683.12052935 2556.04013977 681.32726983 2555.44357207 679.53399658 2554.8470459 C649.51697491 2544.85730186 619.77659107 2534.14213571 590.08300781 2523.23144531 C585.70182921 2521.62225067 581.31691032 2520.02400179 576.92779541 2518.43659973 C533.03763805 2502.55550342 489.71403033 2484.79774078 447 2466 C446.31452087 2465.69874207 445.62904175 2465.39748413 444.92279053 2465.08709717 C409.10266419 2449.3343294 373.20373574 2433.03889345 338.74316406 2414.46728516 C335.36711083 2412.66147527 331.97653504 2410.88374744 328.5859375 2409.10546875 C313.04461566 2400.9409958 297.71993703 2392.52339913 282.62548828 2383.55078125 C279.40430464 2381.64814423 276.15927032 2379.78951506 272.91088867 2377.93383789 C239.79549155 2358.97285915 207.69757555 2337.85206307 176.8125 2315.4375 C176.0596875 2314.892146 175.306875 2314.34679199 174.53125 2313.78491211 C168.52643313 2309.41748195 162.61527413 2304.9448799 156.76367188 2300.37353516 C154.78033566 2298.82892697 152.78889566 2297.29510932 150.796875 2295.76171875 C132.05252912 2281.30476264 113.86926404 2266.20516821 96.421875 2250.203125 C94.24681709 2248.22452394 92.0411589 2246.29268324 89.8125 2244.375 C86.45863224 2241.46512695 83.33354773 2238.38117443 80.25 2235.1875 C78.33181432 2233.32259726 76.37457737 2231.58309198 74.34765625 2229.83984375 C69.49717833 2225.6250154 64.96875797 2221.11545593 60.4375 2216.5625 C59.62603516 2215.75490234 58.81457031 2214.94730469 57.97851562 2214.11523438 C53.71717647 2209.84701654 49.61881359 2205.50454822 45.68676758 2200.93188477 C42.76783584 2197.58878058 39.68380065 2194.40207474 36.625 2191.1875 C31.60865388 2185.87593028 26.79411486 2180.4934066 22.2421875 2174.7734375 C20.54957126 2172.67978326 18.83463873 2170.6333139 17.0703125 2168.6015625 C16.55170654 2168.00424316 16.03310059 2167.40692383 15.4987793 2166.79150391 C14.50633444 2165.65271417 13.51075008 2164.51664711 12.51098633 2163.38427734 C-460.69186906 1619.21318751 0 721.14015098 0 0 Z " fill="#6F1044" transform="translate(0,0)"/>
<path d="M0 0 C2.83915256 2.82110852 5.6075193 5.60497928 8.12890625 8.71484375 C8.95962646 9.73336426 8.95962646 9.73336426 9.80712891 10.77246094 C10.38640137 11.48692383 10.96567383 12.20138672 11.5625 12.9375 C21.12495414 24.62969347 30.89770354 36.04725954 41.2199707 47.07641602 C42.58540599 48.55197007 43.9384098 50.03903603 45.28588867 51.53100586 C52.37464988 59.35772831 59.72936771 66.88386566 67.20776367 74.33813477 C69.19892777 76.32389676 71.18463221 78.3150074 73.16992188 80.30664062 C81.53686848 88.68510881 81.53686848 88.68510881 90.34643555 96.59155273 C93.08757778 98.92635999 95.68686409 101.41217175 98.3125 103.875 C103.08410895 108.31465293 107.9816799 112.51659141 113.06640625 116.59765625 C116.54904297 119.44961575 119.92761293 122.40842125 123.3125 125.375 C129.74079148 130.98526322 136.33881663 136.31468431 143.09423828 141.52392578 C145.15327285 143.11871479 147.2002889 144.72812291 149.24609375 146.33984375 C159.63627362 154.50835299 170.21614725 162.35983794 181 170 C181.79132324 170.56187012 182.58264648 171.12374023 183.39794922 171.70263672 C226.7186627 202.41088093 272.0540739 230.29032827 318.87792969 255.32568359 C322.12505132 257.06706303 325.36379788 258.82332135 328.6015625 260.58203125 C354.06170071 274.37581845 379.92194332 287.26069785 406.26367188 299.29003906 C409.56665551 300.79931604 412.86338737 302.32185359 416.15910339 303.84692383 C485.58305521 335.96505904 556.90208076 363.51748736 629 389 C630.47901794 389.5227652 630.47901794 389.5227652 631.98791504 390.05609131 C725.73023526 423.15038768 820.53358551 453.08435025 1409.75 554.625 C1410.40699135 554.63590164 1411.0639827 554.64680328 1411.74088287 554.65803528 C1511.15425058 556.28398558 1609.462123 547.44005739 1862.97802734 500.23168945 C1871.76703753 498.24026933 1880.58767903 496.4279547 1889.41897583 494.63604736 C1907.43705952 490.97990053 1925.39382102 487.09757967 1943.328125 483.05175781 C1947.40013313 482.13376699 1951.47393639 481.22398933 1955.54824829 480.31628418 C1972.67545282 476.50036695 1989.77935224 472.62568407 2006.82373047 468.45288086 C2014.71480836 466.52796833 2022.62712831 464.73254371 2030.5625 463 C2042.24116073 460.44617496 2053.82917124 457.58797369 2065.41796875 454.65625 C2073.71032758 452.56012929 2082.03112433 450.59119525 2090.35546875 448.62695312 C2095.13596484 447.49361543 2099.91119841 446.33836088 2104.6875 445.1875 C2111.9461627 443.43894994 2119.20959056 441.71257544 2126.48046875 440.015625 C2145.23437119 435.66751959 2145.23437119 435.66751959 2163.87530518 430.86413574 C2170.07969699 429.19554417 2176.32729895 427.76604464 2182.59375 426.3515625 C2192.56550751 424.07436945 2202.49630847 421.65623454 2212.40625 419.125 C2213.06181885 418.95762959 2213.7173877 418.79025917 2214.39282227 418.61781693 C2219.09626791 417.41597355 2223.79828945 416.2086106 2228.5 415 C2233.8636248 413.62123929 2239.22783804 412.24483577 2244.59375 410.875 C2245.25379532 410.70646011 2245.91384064 410.53792023 2246.59388733 410.36427307 C2255.24591848 408.15930036 2263.91650998 406.06443756 2272.625 404.09375 C2283.13618155 401.71231685 2293.58730465 399.12644769 2304.03125 396.46875 C2304.82070511 396.26790802 2305.61016022 396.06706604 2306.42353821 395.86013794 C2312.11670139 394.41070361 2317.80849119 392.95591489 2323.5 391.5 C2329.98867298 389.84016674 2336.47791751 388.1826206 2342.96875 386.53125 C2343.75111778 386.3321295 2344.53348557 386.133009 2345.33956146 385.92785454 C2356.40613021 383.11565397 2367.49071288 380.42118324 2378.63220215 377.91870117 C2385.37874366 376.40168974 2392.06800215 374.71679785 2398.75 372.9375 C2405.87032604 371.04994671 2412.99511998 369.27925068 2420.1875 367.6875 C2429.98599417 365.51798176 2439.70907415 363.0851848 2449.4375 360.625 C2462.29001044 357.37653929 2475.16841973 354.32801231 2488.11010742 351.45581055 C2495.85522998 349.73059843 2503.561098 347.89756647 2511.25 345.9375 C2520.51801037 343.5792572 2529.82021298 341.4395809 2539.16113281 339.39038086 C2547.86604453 337.48010214 2556.55633951 335.51214207 2565.24237061 333.51821899 C2580.81339521 329.94402709 2596.39727877 326.43357969 2612 323 C2613.77648926 322.60844727 2613.77648926 322.60844727 2615.58886719 322.20898438 C2639.0386758 317.04447988 2662.50860967 311.97197635 2686 307 C2686.76242004 306.83862549 2687.52484009 306.67725098 2688.31036377 306.51098633 C2700.5247451 303.93014525 2712.75764437 301.44446757 2725 299 C2726.20058044 298.76023437 2727.40116089 298.52046875 2728.63812256 298.2734375 C2803.27418735 283.39132892 2878.20689591 269.85758348 3257 230 C3258.17186859 229.95869965 3259.34373718 229.91739929 3260.55111694 229.87484741 C3282.97404282 229.09598317 3305.37665952 228.79593474 3327.8125 228.8125 C3329.03972589 228.81290031 3329.03972589 228.81290031 3330.29174423 228.81330872 C3428.05628944 228.85308461 3526.23686949 236.30464642 3883 355 C3884.08490723 355.60956543 3885.16981445 356.21913086 3886.28759766 356.84716797 C3902.38581126 365.91553482 3918.30788338 375.24175776 3934 385 C3934.85062012 385.52674316 3935.70124023 386.05348633 3936.57763672 386.59619141 C3967.44884171 405.7684602 3997.4545595 426.56910582 4026.61914062 448.23681641 C4029.04719498 450.034951 4031.48320168 451.82176718 4033.921875 453.60546875 C4042.855712 460.14422042 4051.67963994 466.78449056 4060.33935547 473.68212891 C4062.02354155 475.01868234 4063.71538011 476.34487521 4065.41015625 477.66796875 C4073.11787627 483.686937 4080.72907225 489.81662304 4088.30859375 495.99609375 C4091.29643058 498.43116179 4094.29847033 500.84737413 4097.3125 503.25 C4105.36962603 509.68227228 4113.31307189 516.24052239 4121.16772461 522.91772461 C4124.53793016 525.77809259 4127.93999462 528.59233985 4131.375 531.375 C4137.07658055 536.01736094 4142.61703326 540.83507127 4148.16015625 545.6640625 C4151.25083391 548.35521163 4154.36138811 551.02184142 4157.48071289 553.6796875 C4163.26649583 558.61041682 4168.94695766 563.62810498 4174.55078125 568.765625 C4177.32499872 571.29649006 4180.14707121 573.76639391 4182.98046875 576.23046875 C4187.02666383 579.77578088 4191.00683622 583.39522905 4195 587 C4196.66640851 588.50028679 4198.33307353 590.00028872 4200 591.5 C4210 600.5 4210 600.5 4212.51171875 602.76171875 C4214.13776274 604.22439255 4215.76530462 605.68540333 4217.39453125 607.14453125 C4223.21882347 612.36663494 4228.97708668 617.65630724 4234.71875 622.96875 C4237.76062001 625.78212273 4240.81655877 628.57965049 4243.875 631.375 C4250.32017361 637.27246757 4256.70083373 643.23850087 4263.08105469 649.20605469 C4265.57970167 651.54193993 4268.08120697 653.87475128 4270.58276367 656.20751953 C4273.07040183 658.52783071 4275.55656528 660.84971811 4278.04248047 663.171875 C4279.39531063 664.43528136 4280.74852541 665.69827597 4282.10205078 666.9609375 C4284.23584787 668.95190043 4286.36806966 670.94453847 4288.5 672.9375 C4289.14638428 673.54005615 4289.79276855 674.1426123 4290.45874023 674.76342773 C4293.51799982 677.62615931 4296.52894646 680.51837613 4299.46875 683.50390625 C4301.84239296 685.89917012 4304.28427139 688.14849998 4306.84375 690.34375 C4312.51494519 695.23911694 4317.68194652 700.63671291 4322.93359375 705.97265625 C4323.72894531 706.77574219 4324.52429687 707.57882812 4325.34375 708.40625 C4326.04693359 709.12103516 4326.75011719 709.83582031 4327.47460938 710.57226562 C4329.46381168 712.48454595 4331.47501024 714.27868293 4333.56871033 716.07069397 C4338.3908866 720.28032898 4342.90669483 724.76639937 4347.42602539 729.29663086 C4348.33278519 730.20163834 4349.23954498 731.10664581 4350.17378235 732.03907776 C4352.63883707 734.4996116 4355.10076381 736.96325225 4357.56196523 739.42763972 C4360.15165568 742.01988161 4362.74380755 744.60966041 4365.33555603 747.19984436 C4369.68554488 751.54801959 4374.03343417 755.89828586 4378.38012695 760.24975586 C4383.3883576 765.26342757 4388.40018022 770.27348695 4393.41388327 775.28168577 C4397.73698841 779.60023672 4402.05812153 783.92075361 4406.37764543 788.2428866 C4408.94939916 790.81619044 4411.52180247 793.38883517 4414.09599495 795.95969963 C4416.96800312 798.82825322 4419.83586518 801.70091845 4422.70336914 804.57397461 C4423.54460327 805.41318451 4424.3858374 806.25239441 4425.25256348 807.11703491 C4429.47808485 811.35765813 4433.55718784 815.66215287 4437.44196224 820.21822453 C4440.28211962 823.46623487 4443.36824358 826.47042393 4446.4375 829.5 C4447.46315063 830.5199707 4447.46315063 830.5199707 4448.50952148 831.56054688 C4450.67057055 833.70950926 4452.83484726 835.85517279 4455 838 C4457.85716017 840.83033837 4460.71083454 843.66412673 4463.5625 846.5 C4464.52530884 847.45036133 4464.52530884 847.45036133 4465.50756836 848.41992188 C4469.28647268 852.17861287 4472.84000893 856.06469563 4476.32299805 860.09814453 C4478.807263 862.91550135 4481.4483186 865.55431785 4484.125 868.1875 C4484.67559082 868.7343042 4485.22618164 869.2811084 4485.79345703 869.84448242 C4487.52650817 871.56549507 4489.26279773 873.28317832 4491 875 C4503.8711191 887.72011714 4503.8711191 887.72011714 4509.1796875 893.95703125 C4513.38996626 898.68230118 4517.99596162 903.05634132 4522.5 907.5 C4533.68934411 918.53934333 4533.68934411 918.53934333 4537.40625 922.90625 C4542.56780656 928.94768775 4548.35248153 934.41873734 4554 940 C4566.78623395 952.63622785 4566.78623395 952.63622785 4570.375 956.875 C4576.13949506 963.64757178 4582.68467356 969.74818977 4589 976 C4591.66967432 978.64282415 4594.33584008 981.28911824 4597 983.9375 C4597.598125 984.52732666 4598.19625 985.11715332 4598.8125 985.72485352 C4601.64680998 988.54295162 4604.36737192 991.39728339 4606.95021057 994.44822693 C4612.0991648 1000.35574845 4617.69091643 1005.83061885 4623.23413086 1011.36352539 C4624.46375327 1012.59450505 4625.69316333 1013.82569685 4626.92237854 1015.05708313 C4630.2423807 1018.38162116 4633.56551059 1021.70301583 4636.88937068 1025.02369618 C4640.37847949 1028.51026146 4643.86513439 1031.99927937 4647.35218811 1035.48789978 C4653.2068722 1041.34439976 4659.0636537 1047.198796 4664.92163086 1053.05200195 C4671.68031226 1059.80524186 4678.43538384 1066.56207651 4685.1885919 1073.3207894 C4691.00182565 1079.13857082 4696.81701802 1084.9543891 4702.63383204 1090.76859087 C4706.1013989 1094.23460406 4709.56829933 1097.7012766 4713.0334301 1101.16972542 C4716.29222664 1104.43142475 4719.55348681 1107.69064112 4722.81661034 1110.9480114 C4724.00902855 1112.13911489 4725.20061064 1113.33105616 4726.39126205 1114.52392578 C4731.92671197 1120.06873148 4737.45222461 1125.57672567 4743.42907047 1130.65280819 C4745.69308319 1132.59437167 4747.78326066 1134.68819033 4749.875 1136.8125 C4750.71546875 1137.66070313 4751.5559375 1138.50890625 4752.421875 1139.3828125 C4754.140625 1141.12760417 4755.859375 1142.87239583 4757.578125 1144.6171875 C4761.98441222 1149.06402338 4766.44308365 1153.3432665 4771.1953125 1157.41796875 C4773.93089208 1159.81604176 4776.46196343 1162.39639892 4779 1165 C4782.91253596 1168.96663765 4786.89561196 1172.74585151 4791.140625 1176.359375 C4793.81013696 1178.71482673 4796.2780701 1181.25228689 4798.75 1183.8125 C4800.69690226 1185.70532164 4802.68446948 1187.48689757 4804.734375 1189.265625 C4809.01429237 1192.98333306 4813.13863223 1196.84778957 4817.25 1200.75 C4826.55343242 1209.54204296 4835.96832973 1218.19710484 4845.49609375 1226.74609375 C4848.21607891 1229.19450473 4850.92095561 1231.65900079 4853.625 1234.125 C4857.37458341 1237.53801491 4861.15523412 1240.90721031 4864.984375 1244.23046875 C4867.28607764 1246.25114956 4869.54764379 1248.31312618 4871.8125 1250.375 C4875.25378205 1253.48528851 4878.76321298 1256.46478312 4882.375 1259.375 C4886.92700307 1263.05507009 4891.23252248 1266.92522884 4895.51464844 1270.90917969 C4899.64881228 1274.73294676 4903.9649775 1278.28842028 4908.3515625 1281.8203125 C4910.97275119 1283.97757399 4913.49154281 1286.21311 4916 1288.5 C4920.24651686 1292.36533345 4924.6301311 1296.01398246 4929.09375 1299.625 C4932.20392541 1302.16664872 4935.25905248 1304.76589917 4938.3125 1307.375 C4943.36206821 1311.67957459 4948.52997287 1315.80348478 4953.76879883 1319.87451172 C4957.76212789 1322.99106746 4961.65262792 1326.20542808 4965.5 1329.5 C4971.60546288 1334.72186286 4977.88686094 1339.69114469 4984.22949219 1344.62060547 C4986.59399008 1346.46277495 4988.94748769 1348.31873173 4991.30126953 1350.17456055 C4997.84227236 1355.32920445 5004.41918367 1360.43572756 5011.03417969 1365.49511719 C5012.46550664 1366.59083245 5013.89569225 1367.68803911 5015.32519531 1368.78613281 C5026.69232759 1377.51689889 5038.14717195 1386.09214974 5049.80712891 1394.42773438 C5052.75925979 1396.54438132 5055.69751645 1398.6799092 5058.63671875 1400.81445312 C5062.41593745 1403.55488135 5066.20636762 1406.27957166 5070 1409 C5070.69561035 1409.49951172 5071.3912207 1409.99902344 5072.10791016 1410.51367188 C5130.21886408 1452.09294479 5191.41895172 1489.4182985 5255 1522 C5255.6054364 1522.31108704 5256.2108728 1522.62217407 5256.83465576 1522.94268799 C5287.84940379 1538.87366891 5319.49325641 1553.35973459 5352 1566 C5352.62638367 1566.2436731 5353.25276733 1566.48734619 5353.89813232 1566.73840332 C5433.61069753 1597.67843842 5516.93109567 1618.51566452 5653.1875 1626.1875 C5654.67310425 1626.18659363 5654.67310425 1626.18659363 5656.1887207 1626.18566895 C5674.85155683 1626.15509858 5693.40094333 1625.54660661 5712 1624 C5712.73508789 1623.9391925 5713.47017578 1623.87838501 5714.22753906 1623.81573486 C5751.57394411 1620.67837111 5788.54025638 1614.65064344 5825 1606 C5825.9792041 1605.77070801 5826.9584082 1605.54141602 5827.96728516 1605.30517578 C5840.46422698 1602.36301571 5852.73960472 1598.80011388 5865 1595 C5866.84271484 1594.43539062 5866.84271484 1594.43539062 5868.72265625 1593.859375 C5871.9270331 1592.86912143 5875.12671251 1591.86537435 5878.32324219 1590.85009766 C5880.40409367 1590.18925081 5882.48560658 1589.53048651 5884.56738281 1588.87255859 C5887.99316475 1587.78930423 5891.41680003 1586.69943988 5894.83944702 1585.60632324 C5896.22157183 1585.1657256 5897.60423088 1584.72679982 5898.98745728 1584.28967285 C5905.86111992 1582.11547548 5912.61872398 1579.89548684 5919.15942383 1576.83764648 C5921.66906346 1575.69550912 5924.24163042 1574.8719068 5926.875 1574.0625 C5931.87259339 1572.44730822 5936.53761926 1570.45288505 5941.28515625 1568.21875 C5943.98941016 1567.004754 5946.70442538 1565.98340781 5949.5 1565 C5954.05804351 1563.38449091 5958.41749101 1561.51501131 5962.80078125 1559.4765625 C5966.76418091 1557.64730112 5970.75679396 1555.88799375 5974.75 1554.125 C5981.37233686 1551.19631899 5987.95297895 1548.19051342 5994.49316406 1545.08251953 C5998.89760126 1543 5998.89760126 1543 6000 1543 C6000 1641.01 6000 1739.02 6000 1840 C5982.35671897 1849.40974988 5982.35671897 1849.40974988 5973.42553711 1853.32446289 C5972.75730927 1853.61757355 5972.08908142 1853.9106842 5971.40060425 1854.212677 C5970.36699265 1854.66427689 5970.36699265 1854.66427689 5969.3125 1855.125 C5968.58934601 1855.44226044 5967.86619202 1855.75952087 5967.12112427 1856.08639526 C5891.17503929 1889.32934039 5811.2021177 1911.90270782 5700 1923 C5699.3251355 1923.04236786 5698.650271 1923.08473572 5697.95495605 1923.12838745 C5683.42830878 1924.02025954 5668.92640157 1924.20156272 5654.375 1924.1875 C5653.21225555 1924.18689575 5652.04951111 1924.1862915 5650.85153198 1924.18566895 C5631.49042079 1924.15848545 5612.29053209 1923.67696877 5593 1922 C5592.28183105 1921.9391925 5591.56366211 1921.87838501 5590.82373047 1921.81573486 C5525.68726848 1916.27814071 5462.03843391 1902.09317166 5400.02178955 1881.66546631 C5398.17420404 1881.05733877 5396.32521012 1880.4534945 5394.47607422 1879.85009766 C5349.36682882 1865.05239221 5305.99309362 1845.72189183 5263.47705078 1824.71728516 C5260.41379314 1823.20436883 5257.34637153 1821.70037963 5254.27734375 1820.19921875 C5242.9795185 1814.64498668 5231.90822556 1808.70753891 5220.89794922 1802.60498047 C5217.94733552 1800.97083266 5214.99127583 1799.34681869 5212.03515625 1797.72265625 C5198.33468247 1790.15842021 5184.91606267 1782.19867195 5171.578125 1774.01953125 C5167.64821429 1771.60983987 5163.70865698 1769.22249447 5159.734375 1766.88671875 C5147.33480341 1759.59784037 5135.37524156 1751.70289109 5123.45269775 1743.66630554 C5119.08343085 1740.72269407 5114.69957469 1737.80173049 5110.30859375 1734.890625 C5089.89490735 1721.35141648 5069.78859325 1707.44124533 5050 1693 C5048.83404297 1692.14921875 5048.83404297 1692.14921875 5047.64453125 1691.28125 C5036.96644218 1683.47736109 5026.39385099 1675.54683509 5015.91650391 1667.47558594 C5014.1274425 1666.0981226 5012.33580198 1664.72411115 5010.54296875 1663.3515625 C5003.83027544 1658.20853885 4997.16452555 1653.00844691 4990.5234375 1647.7734375 C4988.22155692 1645.95910361 4985.91439371 1644.15191409 4983.6015625 1642.3515625 C4976.41128831 1636.74605817 4969.34089922 1631.01247233 4962.3215332 1625.19433594 C4957.89467568 1621.53342445 4953.41621799 1617.95511724 4948.875 1614.4375 C4941.96008879 1609.06638752 4935.38663676 1603.33298434 4928.80078125 1597.56689453 C4926.03691819 1595.16200392 4923.23943747 1592.79781382 4920.4375 1590.4375 C4914.78194557 1585.66859949 4909.15870126 1580.86322396 4903.546875 1576.04296875 C4901.16616839 1573.99832321 4898.78047191 1571.95973474 4896.390625 1569.92578125 C4890.957691 1565.29641334 4885.56889841 1560.64330933 4880.3125 1555.8125 C4876.72032252 1552.51129419 4873.04949941 1549.37277707 4869.25 1546.3125 C4865.48556733 1543.27425576 4862.01792578 1540.13673701 4858.65625 1536.6640625 C4856.31448667 1534.31125312 4853.80542739 1532.1752333 4851.29296875 1530.0078125 C4848.53094206 1527.58927465 4845.82598859 1525.11112266 4843.125 1522.625 C4839.43460926 1519.22949427 4835.73294545 1515.84884817 4832 1512.5 C4823.12331153 1504.526504 4814.3657809 1496.42817856 4805.65332031 1488.27612305 C4802.02675802 1484.88447788 4798.38527224 1481.51029192 4794.72705078 1478.15283203 C4789.97655929 1473.79252464 4785.32352103 1469.36718183 4780.80078125 1464.76953125 C4779.05173855 1463.0508407 4777.24439502 1461.46103409 4775.375 1459.875 C4770.75807383 1455.91502775 4766.52702232 1451.58138227 4762.27490234 1447.23779297 C4759.40146203 1444.32174676 4756.49308384 1441.52896654 4753.375 1438.875 C4746.64105908 1433.06227257 4740.52114065 1426.57481163 4734.27246094 1420.25195312 C4732.57962012 1418.54082693 4730.88362463 1416.8328703 4729.1875 1415.125 C4728.68516846 1414.61437012 4728.18283691 1414.10374023 4727.6652832 1413.57763672 C4724.99324853 1410.8877391 4722.25639253 1408.33574973 4719.37391663 1405.87193298 C4714.66707206 1401.76800253 4710.25810688 1397.39850336 4705.84936523 1392.97875977 C4704.97186615 1392.103013 4704.09436707 1391.22726624 4703.1902771 1390.32498169 C4700.80624309 1387.94457046 4698.42444995 1385.56196234 4696.04382205 1383.17814755 C4693.53821375 1380.66998679 4691.03014289 1378.16429031 4688.5224762 1375.65818787 C4684.31372279 1371.45124778 4680.10706841 1367.24221749 4675.90161133 1363.03198242 C4671.05697525 1358.18190535 4666.20874758 1353.33544092 4661.35863918 1348.49083668 C4657.17565981 1344.31241236 4652.99465363 1340.13202114 4648.8152557 1335.95001453 C4646.32733872 1333.4605479 4643.83877342 1330.97173942 4641.34841728 1328.4847126 C4638.56980931 1325.70956079 4635.79534403 1322.93028938 4633.02124023 1320.15063477 C4631.80146736 1318.93389824 4631.80146736 1318.93389824 4630.55705261 1317.69258118 C4626.37374171 1313.49382516 4622.36281406 1309.21072208 4618.49499607 1304.71972561 C4616.71398866 1302.6709951 4614.84733995 1300.73342068 4612.91992188 1298.82226562 C4612.20227661 1298.10792358 4611.48463135 1297.39358154 4610.74523926 1296.65759277 C4609.9939978 1295.91464966 4609.24275635 1295.17170654 4608.46875 1294.40625 C4607.67400269 1293.61528931 4606.87925537 1292.82432861 4606.0604248 1292.00939941 C4603.54271568 1289.50380477 4601.02178554 1287.00149142 4598.5 1284.5 C4595.17411811 1281.2008832 4591.85167664 1277.89835626 4588.53125 1274.59375 C4587.78000854 1273.85080688 4587.02876709 1273.10786377 4586.25476074 1272.34240723 C4582.21278259 1268.31903374 4578.37384304 1264.19710477 4574.65197754 1259.87683105 C4572.11020379 1256.98909209 4569.39670906 1254.29150276 4566.65625 1251.59375 C4566.08346313 1251.02474976 4565.51067627 1250.45574951 4564.92053223 1249.86950684 C4563.11614749 1248.07717018 4561.3085264 1246.28815684 4559.5 1244.5 C4546.09657284 1231.24753663 4546.09657284 1231.24753663 4540.83398438 1225.05664062 C4536.46139856 1220.15319775 4531.67421166 1215.61439542 4527 1211 C4521.11055822 1205.18592585 4515.26276486 1199.40963243 4509.88671875 1193.109375 C4505.48952854 1188.19326172 4500.69260432 1183.63255271 4496 1179 C4484.27786752 1167.42787653 4484.27786752 1167.42787653 4480.625 1163.125 C4475.15459733 1156.71416491 4468.98688935 1150.92204939 4463 1145 C4460.51780934 1142.54469227 4458.03915358 1140.08589153 4455.5625 1137.625 C4455.00812256 1137.0789209 4454.45374512 1136.5328418 4453.88256836 1135.97021484 C4451.04406503 1133.14915697 4448.33696187 1130.26748501 4445.73069763 1127.22970581 C4442.32011462 1123.31592914 4438.7451499 1119.62201737 4435.05493164 1115.97314453 C4434.07316452 1114.99597725 4434.07316452 1114.99597725 4433.07156372 1113.99906921 C4431.66606221 1112.60066198 4430.25943184 1111.20338854 4428.85176277 1109.80716324 C4426.62629872 1107.59922155 4424.40451086 1105.38764028 4422.18370056 1103.17501831 C4415.87469928 1096.89037185 4409.55993077 1090.61154286 4403.2409668 1084.33691406 C4399.36431777 1080.48696125 4395.49248374 1076.63222107 4391.6236248 1072.77444077 C4390.14903657 1071.30607493 4388.67255188 1069.8396111 4387.19417 1068.37506485 C4385.13802975 1066.33802193 4383.08801356 1064.29500289 4381.03930664 1062.25048828 C4380.42380447 1061.64374771 4379.80830231 1061.03700714 4379.17414856 1060.41188049 C4375 1056.22789906 4375 1056.22789906 4375 1054 C4374.44519958 1053.77084396 4373.89039917 1053.54168793 4373.31878662 1053.30558777 C4370.34566099 1051.63157584 4368.30327541 1049.53458208 4365.89941406 1047.1105957 C4365.40449463 1046.61436203 4364.9095752 1046.11812836 4364.3996582 1045.6068573 C4362.76699858 1043.96771611 4361.14143637 1042.32171273 4359.515625 1040.67578125 C4358.37516674 1039.52904624 4357.23418757 1038.38282909 4356.0927124 1037.23710632 C4353.08634927 1034.21744326 4350.08559325 1031.1922745 4347.08642578 1028.16546631 C4342.30208102 1023.33802937 4337.51114931 1018.51715569 4332.71672821 1013.69972801 C4331.05268971 1012.02557134 4329.39217108 1010.3479835 4327.73199463 1008.66999817 C4322.85774781 1003.75729573 4317.96612658 998.92249725 4312.67547607 994.45158386 C4309.61924388 991.80375295 4306.82704225 988.88784746 4304 986 C4299.75042689 981.70082317 4295.47208324 977.54459924 4290.85546875 973.63671875 C4287.83175402 970.96948407 4285.05307203 968.06066135 4282.22265625 965.19140625 C4279.5729856 962.57898932 4276.78827197 960.16697379 4273.96484375 957.74609375 C4271.26621639 955.34790999 4268.75685425 952.78388476 4266.25 950.1875 C4264.30309774 948.29467836 4262.31553052 946.51310243 4260.265625 944.734375 C4255.98570902 941.01666815 4251.86134272 937.15223501 4247.75 933.25 C4240.89110935 926.76738898 4233.97403827 920.35839903 4227 914 C4225.98265676 913.06685976 4224.96573799 912.13325655 4223.94921875 911.19921875 C4218.51733592 906.20829423 4213.06127677 901.24629009 4207.5703125 896.3203125 C4204.65571249 893.68919942 4201.76481639 891.03325191 4198.875 888.375 C4193.26871382 883.22610109 4187.57754459 878.19596983 4181.78515625 873.2578125 C4180.58578591 872.23455265 4179.38657183 871.21110963 4178.1875 870.1875 C4177.27834839 869.41164551 4177.27834839 869.41164551 4176.35083008 868.62011719 C4172.60948459 865.4151062 4168.9389307 862.14798497 4165.3125 858.8125 C4160.92644354 854.78606164 4156.38258372 851.01890278 4151.75 847.28125 C4148.91900422 844.93281032 4146.20616402 842.49090098 4143.5 840 C4139.10621452 835.96045182 4134.58161176 832.15320381 4129.9375 828.40625 C4126.63646697 825.7022123 4123.41234787 822.91888768 4120.1875 820.125 C4114.96674949 815.61298425 4109.62683491 811.29744954 4104.17382812 807.0703125 C4100.25436274 804.02038292 4096.45106887 800.86460158 4092.6875 797.625 C4087.10168311 792.83077218 4081.30872837 788.35082054 4075.44042969 783.90893555 C4070.71093413 780.32471564 4066.05272689 776.66743913 4061.4375 772.9375 C4053.7707565 766.75943475 4045.91443828 760.85582133 4038 755 C4037.25202148 754.44554199 4036.50404297 753.89108398 4035.73339844 753.31982422 C4027.12435625 746.9413557 4018.48669773 740.60210057 4009.8125 734.3125 C4009.16168457 733.8388501 4008.51086914 733.3652002 4007.84033203 732.87719727 C3994.53317623 723.26000285 3980.85009706 714.16330922 3967.1875 705.0625 C3966.39675079 704.53575684 3965.60600159 704.00901367 3964.79129028 703.46630859 C3892.19203574 655.1406588 3814.71146623 614.1442108 3606 552 C3604.68509583 551.7395993 3604.68509583 551.7395993 3603.34362793 551.47393799 C3497.75327312 530.67216824 3389.95804899 524.80538409 2500 647 C2499.24746193 647.17882469 2498.49492386 647.35764938 2497.7195816 647.54189301 C2472.12941258 653.62436816 2446.55968149 659.79074862 2421 666 C2420.11826363 666.21419334 2419.23652725 666.42838669 2418.32807159 666.64907074 C2375.05841779 677.16241602 2331.81880294 687.79669023 2288.60546875 698.5390625 C2287.86262217 698.72372291 2287.1197756 698.90838331 2286.35441852 699.09863949 C2278.76102524 700.98628677 2271.16773344 702.87434209 2263.57446998 704.76251149 C2208.60712581 718.43084647 2153.62411901 732.01951535 2098.53622913 745.19573593 C2092.65380886 746.60306759 2086.77265253 748.01559206 2080.89208984 749.43066406 C1996.31484476 769.77821843 1911.44873175 788.95102005 1154 829 C1153.04270996 828.84571533 1152.08541992 828.69143066 1151.09912109 828.5324707 C1066.96418806 814.92733229 983.60578764 795.7827563 813.98242188 747.90710449 C810.9292518 746.97848191 807.87489814 746.05383759 804.8203125 745.12988281 C764.63392951 732.96113366 724.74785928 719.90552084 684.91359711 706.63728333 C683.12052935 706.04013977 681.32726983 705.44357207 679.53399658 704.8470459 C649.51697491 694.85730186 619.77659107 684.14213571 590.08300781 673.23144531 C585.70182921 671.62225067 581.31691032 670.02400179 576.92779541 668.43659973 C533.03763805 652.55550342 489.71403033 634.79774078 447 616 C446.31452087 615.69874207 445.62904175 615.39748413 444.92279053 615.08709717 C409.10266419 599.3343294 373.20373574 583.03889345 338.74316406 564.46728516 C335.36711083 562.66147527 331.97653504 560.88374744 328.5859375 559.10546875 C313.04461566 550.9409958 297.71993703 542.52339913 282.62548828 533.55078125 C279.40430464 531.64814423 276.15927032 529.78951506 272.91088867 527.93383789 C239.79549155 508.97285915 207.69757555 487.85206307 176.8125 465.4375 C175.68328125 464.61946899 175.68328125 464.61946899 174.53125 463.78491211 C168.52643313 459.41748195 162.61527413 454.9448799 156.76367188 450.37353516 C154.78033566 448.82892697 152.78889566 447.29510932 150.796875 445.76171875 C132.05252912 431.30476264 113.86926404 416.20516821 96.421875 400.203125 C94.24681709 398.22452394 92.0411589 396.29268324 89.8125 394.375 C86.45863224 391.46512695 83.33354773 388.38117443 80.25 385.1875 C78.33181432 383.32259726 76.37457737 381.58309198 74.34765625 379.83984375 C69.49717833 375.6250154 64.96875797 371.11545593 60.4375 366.5625 C59.62603516 365.75490234 58.81457031 364.94730469 57.97851562 364.11523438 C53.71717647 359.84701654 49.61881359 355.50454822 45.68676758 350.93188477 C42.76783584 347.58878058 39.68380065 344.40207474 36.625 341.1875 C31.60865388 335.87593028 26.79411486 330.4934066 22.2421875 324.7734375 C20.54957126 322.67978326 18.83463873 320.6333139 17.0703125 318.6015625 C16.55170654 318.00424316 16.03310059 317.40692383 15.4987793 316.79150391 C14.50633444 315.65271417 13.51075008 314.51664711 12.51098633 313.38427734 C10.97323307 311.61590073 9.48968403 309.80912678 8 308 C7.33408608 307.23124517 6.66817216 306.46249033 5.98207903 305.6704399 C0.21626846 298.5351397 -1.14991093 293.46055042 -0.96203613 284.40193176 C-0.96887153 283.17971804 -0.97570693 281.95750431 -0.98274946 280.69825381 C-0.99358289 277.3354211 -0.96885422 273.97638089 -0.92852497 270.61401021 C-0.89377213 266.97750125 -0.90568254 263.34109623 -0.91174316 259.70446777 C-0.91592523 253.41396034 -0.89096114 247.12411995 -0.84584045 240.83378029 C-0.78064817 231.73927919 -0.75997112 222.64509856 -0.74993652 213.55038913 C-0.73245484 198.79276893 -0.67929016 184.03550376 -0.60351562 169.27807617 C-0.53001228 154.94801604 -0.4734199 140.61805255 -0.43945312 126.2878418 C-0.43735134 125.40359407 -0.43524955 124.51934634 -0.43308407 123.60830323 C-0.42264329 119.17201165 -0.41253374 114.73571939 -0.40258884 110.29942667 C-0.3197403 73.53270052 -0.17891014 36.76637798 0 0 Z " fill="#0B080E" transform="translate(0,1850)"/>
</svg>
